<svg width="13" height="13" viewBox="0 0 13 13" fill="none" xmlns="http://www.w3.org/2000/svg">
<path d="M6.49989 0C2.91014 0 0 2.91023 0 6.49989C0 10.0896 2.91014 13 6.49989 13C10.0896 13 13 10.0896 13 6.49989C13 2.91023 10.0896 0 6.49989 0ZM9.30997 7.73617H6.55428C6.54496 7.73617 6.53629 7.73392 6.52706 7.73357C6.51783 7.734 6.50921 7.73617 6.49985 7.73617C6.25159 7.73617 6.0503 7.53488 6.0503 7.28662V2.6975C6.0503 2.44924 6.25159 2.24795 6.49985 2.24795C6.74811 2.24795 6.9494 2.44924 6.9494 2.6975V6.83707H9.3098C9.55806 6.83707 9.75935 7.03836 9.75935 7.28662C9.75935 7.53488 9.55824 7.73617 9.30997 7.73617Z" fill="#000000"/>
</svg>
