<svg width="59" height="59" viewBox="0 0 59 59" fill="none" xmlns="http://www.w3.org/2000/svg">
<path d="M52.0028 29.2111V30.4491C52.0028 37.3811 40.3618 43.0001 26.0028 43.0001C18.0768 43.0001 10.9838 41.2861 6.21484 38.5861C7.82284 44.8311 18.7508 50.0001 32.0028 50.0001C46.3618 50.0001 58.0028 43.9321 58.0028 37.0001C58.0028 33.9521 55.7468 31.2661 52.0028 29.2111Z" fill="#FCC62D"/>
<path d="M32.0029 50C17.6439 50 6.00293 43.932 6.00293 37V45.448C6.00293 52.38 17.6439 58 32.0029 58C46.3619 58 58.0029 52.38 58.0029 45.448V37C58.0029 43.932 46.3619 50 32.0029 50Z" fill="#E4AF18"/>
<path d="M9.00293 51.349C9.59293 51.888 10.2619 52.404 11.0029 52.894V44.603C10.2619 44.093 9.59293 43.558 9.00293 43V51.349Z" fill="#CE9912"/>
<path d="M53.0029 44.603V52.894C53.7439 52.405 54.4129 51.888 55.0029 51.349V43C54.4139 43.558 53.7449 44.093 53.0029 44.603Z" fill="#CE9912"/>
<path d="M13.0029 54.06C13.6349 54.387 14.3029 54.696 15.0029 54.989V46.796C14.3029 46.488 13.6349 46.163 13.0029 45.821V54.06Z" fill="#CE9912"/>
<path d="M49.0029 54.9879C49.7029 54.6959 50.3709 54.3859 51.0029 54.0589V45.8199C50.3709 46.1619 49.7029 46.4879 49.0029 46.7949V54.9879Z" fill="#CE9912"/>
<path d="M17.0029 55.745C17.6489 55.966 18.3159 56.172 19.0029 56.364V48.25C18.3159 48.046 17.6489 47.827 17.0029 47.594V55.745Z" fill="#CE9912"/>
<path d="M45.0029 56.364C45.6899 56.172 46.3569 55.966 47.0029 55.745V47.594C46.3569 47.827 45.6899 48.046 45.0029 48.25V56.364Z" fill="#CE9912"/>
<path d="M22.0029 57.084C22.6559 57.216 23.3239 57.334 24.0029 57.439V49.395C23.3239 49.282 22.6559 49.156 22.0029 49.016V57.084Z" fill="#CE9912"/>
<path d="M40.0029 57.439C40.6819 57.333 41.3499 57.215 42.0029 57.084V49.015C41.3499 49.155 40.6819 49.281 40.0029 49.395V57.439Z" fill="#CE9912"/>
<path d="M28.0029 57.8989C28.6609 57.9479 29.3289 57.9819 30.0029 58.0059V50.0029C29.3289 49.9769 28.6609 49.9409 28.0029 49.8879V57.8989Z" fill="#CE9912"/>
<path d="M34.0029 58.0069C34.6769 57.9819 35.3449 57.9489 36.0029 57.8999V49.8879C35.3449 49.9409 34.6769 49.9769 34.0029 50.0039V58.0069Z" fill="#CE9912"/>
<path d="M26.0029 34.993C11.6439 34.993 0.00292969 28.925 0.00292969 21.993V30.441C0.00292969 37.373 11.6439 42.993 26.0029 42.993C40.3619 42.993 52.0029 37.373 52.0029 30.441V21.993C52.0029 28.925 40.3619 34.993 26.0029 34.993Z" fill="#E4AF18"/>
<path d="M3.00293 36.342C3.59293 36.881 4.26193 37.397 5.00293 37.887V29.596C4.26193 29.086 3.59293 28.551 3.00293 27.994V36.342Z" fill="#CE9912"/>
<path d="M47.0029 29.596V37.887C47.7439 37.398 48.4129 36.881 49.0029 36.342V27.993C48.4139 28.551 47.7449 29.086 47.0029 29.596Z" fill="#CE9912"/>
<path d="M7.00293 39.053C7.63493 39.38 8.30293 39.689 9.00293 39.982V31.789C8.30293 31.481 7.63493 31.156 7.00293 30.814V39.053Z" fill="#CE9912"/>
<path d="M43.0029 39.981C43.7029 39.689 44.3709 39.38 45.0029 39.052V30.813C44.3709 31.155 43.7029 31.481 43.0029 31.788V39.981Z" fill="#CE9912"/>
<path d="M11.0029 40.738C11.6489 40.959 12.3159 41.165 13.0029 41.357V33.243C12.3159 33.039 11.6489 32.82 11.0029 32.587V40.738Z" fill="#CE9912"/>
<path d="M39.0029 41.357C39.6899 41.165 40.3569 40.959 41.0029 40.738V32.587C40.3569 32.82 39.6899 33.039 39.0029 33.243V41.357Z" fill="#CE9912"/>
<path d="M16.0029 42.077C16.6559 42.209 17.3239 42.327 18.0029 42.432V34.388C17.3239 34.275 16.6559 34.149 16.0029 34.009V42.077Z" fill="#CE9912"/>
<path d="M34.0029 42.433C34.6819 42.327 35.3499 42.209 36.0029 42.078V34.009C35.3499 34.149 34.6819 34.275 34.0029 34.389V42.433Z" fill="#CE9912"/>
<path d="M22.0029 42.893C22.6609 42.942 23.3289 42.976 24.0029 43V34.997C23.3289 34.971 22.6609 34.935 22.0029 34.882V42.893Z" fill="#CE9912"/>
<path d="M28.0029 43C28.6769 42.975 29.3449 42.942 30.0029 42.893V34.881C29.3449 34.934 28.6769 34.97 28.0029 34.997V43Z" fill="#CE9912"/>
<path d="M51.3202 33.302C48.6432 38.858 38.3292 43 26.0032 43C21.3992 43 17.0772 42.42 13.3262 41.407C16.9542 43.87 23.4112 45.966 32.0032 45.966C45.6852 45.966 54.0032 40.655 54.0032 37C54.0032 35.78 53.0642 34.486 51.3202 33.302Z" fill="#FFD949"/>
<path d="M31.0029 33C16.6439 33 5.00293 27.38 5.00293 20.448V14.796C1.86193 16.765 0.00292969 19.234 0.00292969 22C0.00292969 28.932 11.6439 35 26.0029 35C32.9169 35 39.1949 33.591 43.8519 31.358C40.0609 32.401 35.6779 33 31.0029 33Z" fill="#FFD949"/>
<path d="M31.0029 24.993C16.6439 24.993 5.00293 18.925 5.00293 11.993V20.441C5.00293 27.373 16.6439 32.993 31.0029 32.993C45.3619 32.993 57.0029 27.373 57.0029 20.441V11.993C57.0029 18.925 45.3619 24.993 31.0029 24.993Z" fill="#E4AF18"/>
<path d="M8.00293 26.342C8.59293 26.881 9.26193 27.397 10.0029 27.887V19.596C9.26193 19.086 8.59293 18.551 8.00293 17.994V26.342Z" fill="#CE9912"/>
<path d="M52.0029 19.596V27.887C52.7439 27.398 53.4129 26.881 54.0029 26.342V17.993C53.4139 18.551 52.7449 19.086 52.0029 19.596Z" fill="#CE9912"/>
<path d="M12.0029 29.053C12.6349 29.38 13.3029 29.689 14.0029 29.982V21.789C13.3029 21.481 12.6349 21.156 12.0029 20.814V29.053Z" fill="#CE9912"/>
<path d="M48.0029 29.981C48.7029 29.689 49.3709 29.38 50.0029 29.052V20.813C49.3709 21.155 48.7029 21.481 48.0029 21.788V29.981Z" fill="#CE9912"/>
<path d="M16.0029 30.738C16.6489 30.959 17.3159 31.165 18.0029 31.357V23.243C17.3159 23.039 16.6489 22.82 16.0029 22.587V30.738Z" fill="#CE9912"/>
<path d="M44.0029 31.357C44.6899 31.165 45.3569 30.959 46.0029 30.738V22.587C45.3569 22.82 44.6899 23.039 44.0029 23.243V31.357Z" fill="#CE9912"/>
<path d="M21.0029 32.077C21.6559 32.209 22.3239 32.327 23.0029 32.432V24.388C22.3239 24.275 21.6559 24.149 21.0029 24.009V32.077Z" fill="#CE9912"/>
<path d="M39.0029 32.433C39.6819 32.327 40.3499 32.209 41.0029 32.078V24.009C40.3499 24.149 39.6819 24.275 39.0029 24.389V32.433Z" fill="#CE9912"/>
<path d="M27.0029 32.893C27.6609 32.942 28.3289 32.976 29.0029 33V24.997C28.3289 24.971 27.6609 24.935 27.0029 24.882V32.893Z" fill="#CE9912"/>
<path d="M33.0029 33C33.6769 32.975 34.3449 32.942 35.0029 32.893V24.881C34.3449 24.934 33.6769 24.97 33.0029 24.997V33Z" fill="#CE9912"/>
<path d="M57.0029 12C57.0029 18.932 45.3619 25 31.0029 25C16.6439 25 5.00293 18.932 5.00293 12C5.00293 5.068 16.6439 0 31.0029 0C45.3619 0 57.0029 5.068 57.0029 12Z" fill="#FCC62D"/>
<path d="M31.0029 20.966C17.3209 20.966 9.00293 15.656 9.00293 12C9.00293 8.345 17.3209 3 31.0029 3C44.6849 3 53.0029 8.345 53.0029 12C53.0029 15.656 44.6849 20.966 31.0029 20.966Z" fill="#FFD949"/>
<path d="M37.7839 13.3589C38.6039 13.1849 39.0849 12.6789 38.9079 12.1019L38.7179 11.4859C38.5789 11.0329 38.0379 10.6549 37.3749 10.4669C36.4729 8.53995 34.1729 7.84195 30.7569 7.84195C30.5949 7.84195 30.4369 7.84595 30.2809 7.85195C29.1149 7.89995 27.9519 7.78795 27.0449 7.45595C26.6749 7.32095 26.3739 7.17995 26.1749 7.03295C26.0849 6.96695 25.8669 7.00895 25.8669 7.09295C25.8669 7.23895 25.8779 7.41195 25.9099 7.60395C26.0339 8.35095 25.8859 8.23895 25.1479 8.98395C24.7199 9.41795 24.3789 9.91795 24.1319 10.4699C23.4729 10.6589 22.9349 11.0359 22.7959 11.4869L22.6059 12.1029C22.4289 12.6799 22.9099 13.1859 23.7299 13.3599C23.9639 14.8359 24.9669 16.1319 27.1539 16.8459L27.0339 17.8829C27.0019 18.1599 26.7629 18.4159 26.4149 18.5419L22.0039 20.1339C24.5799 20.6739 27.5159 20.9999 30.7569 20.9999C33.9529 20.9999 36.8519 20.6829 39.4019 20.1579L35.0869 18.5449C34.7459 18.4169 34.5119 18.1629 34.4809 17.8909L34.3599 16.8459C36.5469 16.1319 37.5499 14.8349 37.7839 13.3589Z" fill="#F0C41B"/>
</svg>
