<svg width="16" height="16" viewBox="0 0 16 16" fill="none" xmlns="http://www.w3.org/2000/svg">
<path d="M15.3705 6.00177C15.3729 6.04579 15.3697 6.09059 15.3586 6.13509L14.3717 10.0828C14.3219 10.2816 14.1437 10.4215 13.9388 10.4226L8.01729 10.4525C8.01651 10.4525 8.01579 10.4525 8.01501 10.4525H2.09346C1.88746 10.4525 1.70796 10.3121 1.6582 10.1122L0.671282 6.14962C0.659918 6.10393 0.656628 6.05787 0.659499 6.01271C0.277712 5.89243 0 5.53516 0 5.11414C0 4.59466 0.422579 4.17208 0.942056 4.17208C1.46153 4.17208 1.88411 4.59466 1.88411 5.11414C1.88411 5.40669 1.75007 5.66843 1.54019 5.84135L2.77581 7.0863C3.08809 7.40097 3.52144 7.58137 3.96477 7.58137C4.48897 7.58137 4.98877 7.33243 5.30351 6.91535L7.33416 4.22472C7.16357 4.05425 7.05794 3.81871 7.05794 3.559C7.05794 3.03952 7.48052 2.61694 8 2.61694C8.51948 2.61694 8.94206 3.03952 8.94206 3.559C8.94206 3.81093 8.84205 4.0396 8.68037 4.20881C8.68091 4.20953 8.68157 4.21012 8.68211 4.2109L10.698 6.90895C11.0127 7.33004 11.5143 7.58143 12.04 7.58143C12.4874 7.58143 12.9081 7.40719 13.2244 7.09078L14.4678 5.84739C14.2535 5.67453 14.1159 5.41027 14.1159 5.11414C14.1159 4.59466 14.5385 4.17208 15.0579 4.17208C15.5774 4.17208 16 4.59466 16 5.11414C16 5.52392 15.7365 5.87245 15.3705 6.00177ZM14.2754 11.8581C14.2754 11.6103 14.0746 11.4095 13.8268 11.4095H2.22307C1.97533 11.4095 1.77447 11.6103 1.77447 11.8581V12.9347C1.77447 13.1824 1.97533 13.3833 2.22307 13.3833H13.8268C14.0746 13.3833 14.2754 13.1824 14.2754 12.9347V11.8581Z" fill="#FEB241"/>
</svg>
