<svg width="41" height="41" viewBox="0 0 41 41" fill="none" xmlns="http://www.w3.org/2000/svg">
<path d="M30.7482 0.00853074L25.4315 0C19.4584 0 15.5982 3.96039 15.5982 10.0902V14.7424H10.2525C9.79057 14.7424 9.4165 15.1169 9.4165 15.5788V22.3194C9.4165 22.7813 9.791 23.1554 10.2525 23.1554H15.5982V40.164C15.5982 40.6259 15.9723 41 16.4342 41H23.4089C23.8708 41 24.2449 40.6255 24.2449 40.164V23.1554H30.4953C30.9572 23.1554 31.3313 22.7813 31.3313 22.3194L31.3339 15.5788C31.3339 15.357 31.2456 15.1446 31.089 14.9877C30.9325 14.8307 30.7192 14.7424 30.4974 14.7424H24.2449V10.7986C24.2449 8.9031 24.6966 7.94084 27.1658 7.94084L30.7474 7.93956C31.2089 7.93956 31.583 7.56506 31.583 7.10354V0.844543C31.583 0.383457 31.2093 0.00938381 30.7482 0.00853074Z" fill="white"/>
</svg>
