<svg width="54" height="54" viewBox="0 0 54 54" fill="none" xmlns="http://www.w3.org/2000/svg">
<path d="M37.125 0H16.875C7.55663 0 0 7.55663 0 16.875V37.125C0 46.4434 7.55663 54 16.875 54H37.125C46.4434 54 54 46.4434 54 37.125V16.875C54 7.55663 46.4434 0 37.125 0ZM48.9375 37.125C48.9375 43.6387 43.6387 48.9375 37.125 48.9375H16.875C10.3612 48.9375 5.0625 43.6387 5.0625 37.125V16.875C5.0625 10.3612 10.3612 5.0625 16.875 5.0625H37.125C43.6387 5.0625 48.9375 10.3612 48.9375 16.875V37.125Z" fill="white"/>
<path d="M27 13.5C19.5446 13.5 13.5 19.5446 13.5 27C13.5 34.4554 19.5446 40.5 27 40.5C34.4554 40.5 40.5 34.4554 40.5 27C40.5 19.5446 34.4554 13.5 27 13.5ZM27 35.4375C22.3492 35.4375 18.5625 31.6507 18.5625 27C18.5625 22.3459 22.3492 18.5625 27 18.5625C31.6507 18.5625 35.4375 22.3459 35.4375 27C35.4375 31.6507 31.6507 35.4375 27 35.4375Z" fill="white"/>
<path d="M41.5127 14.2862C42.5062 14.2862 43.3116 13.4808 43.3116 12.4874C43.3116 11.4939 42.5062 10.6885 41.5127 10.6885C40.5193 10.6885 39.7139 11.4939 39.7139 12.4874C39.7139 13.4808 40.5193 14.2862 41.5127 14.2862Z" fill="white"/>
</svg>
