<svg width="30" height="30" viewBox="0 0 30 30" fill="none" xmlns="http://www.w3.org/2000/svg">
<path d="M15.0003 14.672C18.3358 14.672 21.04 11.3876 21.04 7.33603C21.04 3.2844 20.1522 0 15.0003 0C9.84845 0 8.96045 3.2844 8.96045 7.33603C8.96045 11.3876 11.6646 14.672 15.0003 14.672Z" fill="#EA4D4D"/>
<path d="M3.59225 25.8731C3.59122 25.626 3.59019 25.8035 3.59225 25.8731V25.8731Z" fill="#EA4D4D"/>
<path d="M26.4072 26.0657C26.4105 25.9981 26.4083 25.5965 26.4072 26.0657V26.0657Z" fill="#EA4D4D"/>
<path d="M26.3946 25.5769C26.2827 18.519 25.361 16.5079 18.3073 15.2349C18.3073 15.2349 17.3144 16.5001 15.0001 16.5001C12.6858 16.5001 11.6927 15.2349 11.6927 15.2349C4.716 16.494 3.73817 18.4753 3.6096 25.3476C3.59906 25.9088 3.59417 25.9383 3.59229 25.8731C3.59271 25.9952 3.59323 26.221 3.59323 26.6146C3.59323 26.6146 5.27254 30 15.0001 30C24.7275 30 26.4069 26.6146 26.4069 26.6146C26.4069 26.3617 26.4071 26.1858 26.4074 26.0662C26.4055 26.1064 26.4017 26.0284 26.3946 25.5769Z" fill="#EA4D4D"/>
</svg>
