<svg width="24" height="24" viewBox="0 0 24 24" fill="none" xmlns="http://www.w3.org/2000/svg">
<g clip-path="url(#clip0)">
<path d="M12.0002 7.59869e-07C16.793 3.40875e-07 20.6921 3.89916 20.6921 8.69184C20.6921 14.6397 12.9138 23.3715 12.5826 23.7404C12.2715 24.0868 11.7284 24.0862 11.4179 23.7404C11.0868 23.3715 3.30836 14.6397 3.30836 8.69184C3.30845 3.89916 7.20756 1.17886e-06 12.0002 7.59869e-07ZM12.0002 13.065C14.4116 13.065 16.3733 11.1032 16.3733 8.69184C16.3733 6.2805 14.4115 4.31878 12.0002 4.31878C9.58895 4.31878 7.62723 6.28055 7.62723 8.69189C7.62723 11.1032 9.58895 13.065 12.0002 13.065Z" fill="black"/>
</g>
<defs>
<clipPath id="clip0">
<rect width="24" height="24" fill="white" transform="matrix(-1 8.74228e-08 8.74228e-08 1 24 0)"/>
</clipPath>
</defs>
</svg>
