<svg width="31" height="35" viewBox="0 0 31 35" fill="none" xmlns="http://www.w3.org/2000/svg">
<path d="M29.8028 15.0294C29.8028 6.73318 23.1312 0.0078125 14.9014 0.0078125C6.67156 0.0078125 0 6.73318 0 15.0294C0 22.2963 5.11925 28.357 11.9206 29.7491L16.4087 34.2734C16.8229 34.691 17.5311 34.3953 17.5311 33.8048V29.8031C24.5045 28.5494 29.8028 22.4195 29.8028 15.0294Z" fill="#FF6464"/>
<path d="M14.9013 26.5216C21.1947 26.5216 26.2965 21.3786 26.2965 15.0345C26.2965 8.69032 21.1947 3.54736 14.9013 3.54736C8.60791 3.54736 3.5061 8.69032 3.5061 15.0345C3.5061 21.3786 8.60791 26.5216 14.9013 26.5216Z" fill="#D2555A"/>
<path d="M14.9021 22.9878C14.9018 22.9878 14.9013 22.9879 14.901 22.9878C14.4169 22.9878 14.0239 22.5917 14.0239 22.1037C14.0239 22.1036 14.0239 22.1034 14.0239 22.1031C14.0239 22.1028 14.0239 22.1028 14.0239 22.1025C14.0239 21.6145 14.4168 21.2183 14.901 21.2183C14.9012 21.2183 14.9017 21.2182 14.9021 21.2183C15.3862 21.2183 15.7792 21.6144 15.7792 22.1025C15.7792 22.1026 15.7792 22.1027 15.7792 22.1028C15.7792 22.103 15.7792 22.1032 15.7792 22.1035C15.7793 22.5918 15.3863 22.9878 14.9021 22.9878Z" fill="white"/>
<path d="M14.9014 19.4524C14.4173 19.4524 14.0248 19.0567 14.0248 18.5687V18.3048C14.0248 17.1293 14.7825 16.1105 15.9104 15.7696C17.3805 15.3252 18.4075 13.9329 18.4076 12.3837C18.4077 11.4645 18.0361 10.5837 17.3614 9.9035C16.6868 9.22343 15.8131 8.84887 14.9013 8.84887C14.9012 8.84887 14.9012 8.84887 14.901 8.84887C12.9678 8.84897 11.395 10.4345 11.395 12.3833C11.395 12.8713 11.0025 13.267 10.5184 13.267C10.0344 13.267 9.64185 12.8713 9.64185 12.3833C9.64185 9.46016 12.0009 7.08184 14.9008 7.08154C14.9008 7.08154 14.9011 7.08154 14.9012 7.08154C16.2812 7.08154 17.5949 7.63989 18.6008 8.65368C19.6067 9.66767 20.1606 10.9923 20.1604 12.3835C20.1602 14.7069 18.6195 16.7952 16.4137 17.462C16.0333 17.577 15.7776 17.9155 15.7776 18.3044V18.5683C15.778 19.0569 15.3855 19.4524 14.9014 19.4524Z" fill="white"/>
</svg>
