<svg width="34" height="34" viewBox="0 0 34 34" fill="none" xmlns="http://www.w3.org/2000/svg">
<path d="M34 17C34 26.389 26.389 34 17 34C7.61104 34 0 26.389 0 17C0 7.61104 7.61104 0 17 0C26.389 0 34 7.61104 34 17Z" fill="#FFC107"/>
<path d="M17 34C7.62582 34 0 26.3742 0 17C0 7.62582 7.62582 0 17 0C26.3742 0 34 7.62582 34 17C34 26.3742 26.3742 34 17 34ZM17 1.41658C8.40791 1.41658 1.41658 8.40791 1.41658 17C1.41658 25.5921 8.40791 32.5834 17 32.5834C25.5921 32.5834 32.5834 25.5921 32.5834 17C32.5834 8.40791 25.5921 1.41658 17 1.41658Z" fill="black"/>
<path d="M22.6665 22.6662C22.2756 22.6662 21.9583 22.3489 21.9583 21.958C21.9583 21.5668 22.2756 21.2496 22.6665 21.2496C25.0097 21.2496 26.9165 19.3427 26.9165 16.9996C26.9165 14.6564 25.0097 12.7496 22.6665 12.7496H14.8749C14.484 12.7496 14.1665 12.4323 14.1665 12.0412C14.1665 11.6503 14.484 11.333 14.8749 11.333H22.6665C25.7917 11.333 28.3333 13.8743 28.3333 16.9996C28.3333 20.1248 25.7917 22.6662 22.6665 22.6662Z" fill="black"/>
<path d="M19.1249 22.6662H11.3333C8.2081 22.6662 5.6665 20.1248 5.6665 16.9996C5.6665 13.8743 8.2081 11.333 11.3333 11.333C11.7243 11.333 12.0415 11.6503 12.0415 12.0412C12.0415 12.4323 11.7243 12.7496 11.3333 12.7496C8.99019 12.7496 7.08334 14.6564 7.08334 16.9996C7.08334 19.3427 8.99019 21.2496 11.3333 21.2496H19.1249C19.5158 21.2496 19.8333 21.5668 19.8333 21.958C19.8333 22.3489 19.5158 22.6662 19.1249 22.6662Z" fill="black"/>
<path d="M17.7085 15.5833C17.5272 15.5833 17.3459 15.5138 17.2069 15.3763L14.3737 12.5431C14.0974 12.2669 14.0974 11.8176 14.3737 11.5413L17.2069 8.70817C17.4831 8.43191 17.9324 8.43191 18.2087 8.70817C18.4847 8.98443 18.4847 9.43345 18.2087 9.70971L15.8767 12.0415L18.2087 14.3735C18.4847 14.6497 18.4847 15.0987 18.2087 15.375C18.0712 15.5138 17.8899 15.5833 17.7085 15.5833Z" fill="black"/>
<path d="M16.2916 25.4997C16.1103 25.4997 15.929 25.4302 15.7902 25.293C15.5139 25.0167 15.5139 24.5674 15.7902 24.2912L18.1219 21.9594L15.7902 19.6277C15.5139 19.3514 15.5139 18.9024 15.7902 18.6261C16.0665 18.3499 16.5155 18.3499 16.7917 18.6261L19.6252 21.4593C19.9014 21.7356 19.9014 22.1846 19.6252 22.4608L16.7917 25.2943C16.6543 25.4302 16.4729 25.4997 16.2916 25.4997Z" fill="black"/>
</svg>
