<svg width="34" height="34" viewBox="0 0 34 34" fill="none" xmlns="http://www.w3.org/2000/svg">
<g clip-path="url(#clip0)">
<path d="M25.0814 9.93438L19.4436 9.13751L16.9334 4.177L14.4232 9.13751L8.7854 9.93438L12.8694 13.8391L11.913 19.2977L16.9334 16.7078L21.9538 19.2977L20.9974 13.8391L25.0814 9.93438Z" fill="#FDBF00"/>
<path d="M20.7784 26.2103C22.0137 27.0271 22.9898 28.2224 23.5078 29.6769L21.6352 30.3542C20.938 28.362 19.0454 27.0274 16.9336 27.0274C14.8218 27.0274 12.9293 28.362 12.232 30.3542L10.3594 29.6769C10.8774 28.2224 11.8535 27.0271 13.0888 26.2103C8.50675 24.2181 5.2793 18.7198 5.2793 12.0857H7.27149C7.27149 15.7116 8.32725 18.9588 10.0805 21.2897C11.8136 23.6204 14.2242 25.0349 16.9336 25.0349C22.3522 25.0349 26.5957 19.3572 26.5957 12.0857H28.5879C28.5879 18.7198 25.3605 24.2181 20.7784 26.2103Z" fill="#FF9F00"/>
<path d="M20.7784 26.2105C22.0137 27.0274 22.9898 28.2227 23.5078 29.6771L21.6352 30.3544C20.9379 28.3622 19.0454 27.0276 16.9336 27.0276V25.0354C22.3522 25.0354 26.5957 19.3574 26.5957 12.0862H28.5879C28.5879 18.7201 25.3604 24.2183 20.7784 26.2105Z" fill="#FF7816"/>
<path d="M26.312 27.0984C25.5271 27.0984 23.6532 27.0517 20.991 24.1101C22.7995 22.1117 24.4335 21.1218 26.312 21.1218C27.0967 21.1218 28.9709 21.1696 31.6339 24.1101C29.8241 26.1085 28.1898 27.0984 26.312 27.0984Z" fill="#FF9F00"/>
<path d="M25.2449 19.5928C25.5805 16.9192 26.351 15.1706 27.8887 14.093C28.532 13.6432 30.0653 12.608 33.9337 13.4878C33.5981 16.1628 32.8564 17.9117 31.3177 18.9889C29.4788 20.2769 27.2752 20.0616 25.2449 19.5928Z" fill="#FF9F00"/>
<path d="M27.0266 13.2976C25.9805 10.8123 25.774 8.91326 26.5675 7.21108C26.899 6.49981 27.7337 4.82175 31.5246 3.65186C32.5705 6.13613 32.777 8.03546 31.9838 9.73738C31.652 10.4487 30.817 12.1262 27.0266 13.2976Z" fill="#FF9F00"/>
<path d="M7.55252 27.0984C6.76757 27.0984 4.89367 27.0517 2.23145 24.1101C4.03998 22.1117 5.67394 21.1218 7.55252 21.1218C8.3372 21.1218 10.2114 21.1696 12.8744 24.1101C11.0645 26.1085 9.43031 27.0984 7.55252 27.0984Z" fill="#FDBF00"/>
<path d="M2.47934 18.9885C1.83629 18.5385 0.427491 17.4238 -0.0664062 13.4874C2.55846 12.8903 4.43444 13.0158 5.97372 14.0926C6.61651 14.5427 8.12441 15.656 8.61856 19.5924C8.41078 19.6116 5.02873 20.7727 2.47934 18.9885Z" fill="#FDBF00"/>
<path d="M6.83635 13.2976C4.26102 12.5015 2.67298 11.4393 1.87921 9.73738C1.5477 9.0261 0.798812 7.3081 2.33835 3.65186C4.91341 4.4464 6.50198 5.50916 7.29548 7.21108C7.627 7.92236 8.37562 9.64114 6.83635 13.2976Z" fill="#FDBF00"/>
<path d="M20.9976 13.8391L21.954 19.2977L16.9336 16.7078V4.177L19.4438 9.13751L25.0816 9.93438L20.9976 13.8391Z" fill="#FF9F00"/>
</g>
<defs>
<clipPath id="clip0">
<rect width="34" height="34" fill="white"/>
</clipPath>
</defs>
</svg>
