<svg width="35" height="31" viewBox="0 0 35 31" fill="none" xmlns="http://www.w3.org/2000/svg">
<path d="M0.611739 14.4591L8.59211 17.4376L11.681 27.3714C11.8786 28.0076 12.6566 28.2428 13.173 27.8206L17.6214 24.1942C18.0877 23.8143 18.7519 23.7953 19.2392 24.1491L27.2625 29.9741C27.8149 30.3757 28.5975 30.073 28.736 29.4055L34.6136 1.13362C34.7648 0.404463 34.0483 -0.203825 33.354 0.0647036L0.602387 12.6993C-0.205855 13.011 -0.198812 14.1553 0.611739 14.4591ZM11.1832 15.852L26.7798 6.24606C27.0601 6.07393 27.3485 6.45294 27.1078 6.67622L14.2361 18.6411C13.7836 19.0623 13.4918 19.6259 13.4091 20.2376L12.9707 23.487C12.9126 23.9208 12.3031 23.9639 12.1834 23.544L10.4971 17.6187C10.3039 16.9429 10.5854 16.221 11.1832 15.852Z" fill="#2729B3"/>
</svg>
