<svg width="22" height="22" viewBox="0 0 22 22" fill="none" xmlns="http://www.w3.org/2000/svg">
<path d="M0.388585 10.6072L5.45783 12.4992L7.41993 18.8093C7.54548 19.2134 8.03967 19.3628 8.36769 19.0946L11.1934 16.7911C11.4896 16.5498 11.9115 16.5377 12.221 16.7624L17.3175 20.4626C17.6684 20.7177 18.1655 20.5254 18.2535 20.1014L21.987 2.1427C22.0831 1.67953 21.628 1.29313 21.1869 1.46371L0.382645 9.48938C-0.130762 9.68738 -0.126288 10.4143 0.388585 10.6072ZM7.10372 11.492L17.0109 5.39019C17.189 5.28085 17.3721 5.52161 17.2192 5.66343L9.04295 13.2637C8.75555 13.5312 8.57017 13.8892 8.51766 14.2778L8.23914 16.3419C8.20225 16.6174 7.81512 16.6448 7.73908 16.3781L6.6679 12.6143C6.54521 12.185 6.724 11.7264 7.10372 11.492Z" fill="white"/>
</svg>
