<svg width="17" height="17" viewBox="0 0 17 17" fill="none" xmlns="http://www.w3.org/2000/svg">
<g clip-path="url(#clip0)">
<path d="M16.6268 5.64079L15.3555 4.37967C14.9789 4.75623 14.5214 4.94464 13.9834 4.94464C13.4453 4.94464 12.988 4.75623 12.6115 4.37967C12.2346 4.00298 12.0465 3.54568 12.0465 3.00753C12.0465 2.46935 12.2349 2.01205 12.6115 1.63532L11.3502 0.374208C11.1011 0.125434 10.7968 0.000976562 10.4372 0.000976562C10.0773 0.000976562 9.77303 0.125469 9.52415 0.374208L0.373372 9.51487C0.124422 9.76386 0 10.0684 0 10.4279C0 10.7877 0.124422 11.0919 0.373372 11.3409L1.63448 12.6122C2.01117 12.2357 2.46858 12.0473 3.00665 12.0473C3.5447 12.0473 4.00199 12.2354 4.37865 12.6122C4.75524 12.9888 4.94359 13.4462 4.94359 13.9843C4.94359 14.5224 4.75535 14.9795 4.37865 15.3564L5.64994 16.6276C5.89885 16.8765 6.20325 17.0009 6.56308 17.0009C6.92296 17.0009 7.22735 16.8765 7.47609 16.6276L16.6268 7.4668C16.8757 7.21795 17 6.91367 17 6.55379C17 6.19395 16.8756 5.8897 16.6268 5.64079ZM13.8926 7.65854L7.65761 13.8934C7.53669 14.0147 7.38534 14.0751 7.20364 14.0751C7.02211 14.0751 6.8708 14.0147 6.74973 13.8934L3.0974 10.2414C2.96959 10.1134 2.90573 9.96217 2.90573 9.78743C2.90573 9.61254 2.96959 9.46105 3.0974 9.3332L9.33235 3.09828C9.45352 2.97718 9.60494 2.91657 9.78657 2.91657C9.96799 2.91657 10.1194 2.97718 10.2405 3.09828L13.8926 6.75048C14.0206 6.87836 14.0844 7.02971 14.0844 7.20456C14.0844 7.37937 14.0205 7.53069 13.8926 7.65854Z" fill="#7B7B7B"/>
<path d="M9.78678 4.01575L12.975 7.2038L7.20416 12.9746L4.01611 9.78659L9.78678 4.01575Z" fill="#7B7B7B"/>
</g>
<defs>
<clipPath id="clip0">
<rect width="17" height="17" fill="white"/>
</clipPath>
</defs>
</svg>
