<svg width="41" height="41" viewBox="0 0 41 41" fill="none" xmlns="http://www.w3.org/2000/svg">
<g clip-path="url(#clip0)">
<path d="M39.939 12.652C41.3344 14.0478 41.3344 16.3103 39.939 17.7061L17.6916 39.9528C16.2962 41.3489 14.0337 41.3489 12.6383 39.9528L10.4832 37.7977C12.3615 35.5406 12.2096 32.2239 10.1334 30.1477C8.0572 28.0711 4.7405 27.9196 2.48341 29.7979L1.07333 28.3878C-0.320374 26.9941 -0.322081 24.7353 1.06889 23.3392L23.2756 1.05126C23.2767 1.04955 23.2784 1.04853 23.2801 1.04682C24.6752 -0.349267 26.938 -0.349267 28.3331 1.04682L30.1834 2.89713C28.6832 5.14671 28.8836 8.14672 30.884 10.1475C32.8179 12.0941 35.8637 12.3879 38.1344 10.8471L39.939 12.652Z" fill="#FDD030"/>
<path d="M34.5149 18.4059L21.8911 31.0298L9.95415 19.0926L9.95142 19.0902L22.5753 6.46631L34.5149 18.4059Z" fill="#CE6868"/>
<path d="M24.2894 18.5526L26.0646 20.9315L23.0967 20.8933L21.3836 23.3166L20.5021 20.4824L17.6689 19.602L20.0915 17.8878L20.054 14.9209L22.4319 16.6954L25.2425 15.7423L24.2894 18.5526Z" fill="#FEDB41"/>
<path d="M21.891 31.0295L18.3924 34.5284L6.45239 22.5888L9.95132 19.0898L9.95405 19.0922L21.891 31.0295Z" fill="#DC1E26"/>
</g>
<defs>
<clipPath id="clip0">
<rect width="41" height="41" fill="white"/>
</clipPath>
</defs>
</svg>
