<svg width="17" height="18" viewBox="0 0 17 18" fill="none" xmlns="http://www.w3.org/2000/svg">
<g clip-path="url(#clip0)">
<path d="M16.6268 6.43338L15.3555 5.18109C14.9789 5.55501 14.5214 5.74211 13.9834 5.74211C13.4453 5.74211 12.988 5.55501 12.6115 5.18109C12.2346 4.80703 12.0465 4.35293 12.0465 3.81854C12.0465 3.28412 12.2349 2.83002 12.6115 2.45592L11.3502 1.20363C11.1011 0.956595 10.7968 0.833008 10.4372 0.833008C10.0773 0.833008 9.77303 0.95663 9.52415 1.20363L0.373372 10.2804C0.124422 10.5276 0 10.83 0 11.187C0 11.5443 0.124422 11.8464 0.373372 12.0936L1.63448 13.3561C2.01117 12.9822 2.46858 12.7951 3.00665 12.7951C3.5447 12.7951 4.00199 12.9819 4.37865 13.3561C4.75524 13.73 4.94359 14.1842 4.94359 14.7186C4.94359 15.2529 4.75535 15.7068 4.37865 16.081L5.64994 17.3434C5.89885 17.5905 6.20325 17.7141 6.56308 17.7141C6.92296 17.7141 7.22735 17.5905 7.47609 17.3434L16.6268 8.24662C16.8757 7.99952 17 7.69736 17 7.34C17 6.98268 16.8756 6.68055 16.6268 6.43338ZM13.8926 8.43702L7.65761 14.6282C7.53669 14.7487 7.38534 14.8087 7.20364 14.8087C7.02211 14.8087 6.8708 14.7487 6.74973 14.6282L3.0974 11.0018C2.96959 10.8748 2.90573 10.7245 2.90573 10.551C2.90573 10.3774 2.96959 10.2269 3.0974 10.1L9.33235 3.90865C9.45352 3.7884 9.60494 3.72822 9.78657 3.72822C9.96799 3.72822 10.1194 3.7884 10.2405 3.90865L13.8926 7.53531C14.0206 7.6623 14.0844 7.81259 14.0844 7.98622C14.0844 8.15981 14.0205 8.31007 13.8926 8.43702Z" fill="#DC1E26"/>
<path d="M9.78678 4.81982L12.975 7.98558L7.20416 13.7161L4.01611 10.5503L9.78678 4.81982Z" fill="#DC1E26"/>
</g>
<defs>
<clipPath id="clip0">
<rect width="17" height="16.8811" fill="white" transform="translate(0 0.832031)"/>
</clipPath>
</defs>
</svg>
