<svg width="17" height="18" viewBox="0 0 17 18" fill="none" xmlns="http://www.w3.org/2000/svg">
<g clip-path="url(#clip0)">
<path d="M16.6268 6.25857L15.3555 5.00628C14.9789 5.3802 14.5214 5.5673 13.9834 5.5673C13.4453 5.5673 12.988 5.3802 12.6115 5.00628C12.2346 4.63222 12.0465 4.17812 12.0465 3.64373C12.0465 3.10931 12.2349 2.65521 12.6115 2.28112L11.3502 1.02882C11.1011 0.78179 10.7968 0.658203 10.4372 0.658203C10.0773 0.658203 9.77303 0.781825 9.52415 1.02882L0.373372 10.1056C0.124422 10.3528 0 10.6552 0 11.0122C0 11.3695 0.124422 11.6716 0.373372 11.9188L1.63448 13.1813C2.01117 12.8074 2.46858 12.6203 3.00665 12.6203C3.5447 12.6203 4.00199 12.8071 4.37865 13.1813C4.75524 13.5552 4.94359 14.0094 4.94359 14.5438C4.94359 15.0781 4.75535 15.532 4.37865 15.9062L5.64994 17.1686C5.89885 17.4157 6.20325 17.5393 6.56308 17.5393C6.92296 17.5393 7.22735 17.4157 7.47609 17.1686L16.6268 8.07182C16.8757 7.82471 17 7.52255 17 7.1652C17 6.80787 16.8756 6.50575 16.6268 6.25857ZM13.8926 8.26222L7.65761 14.4534C7.53669 14.5739 7.38534 14.6339 7.20364 14.6339C7.02211 14.6339 6.8708 14.5739 6.74973 14.4534L3.0974 10.827C2.96959 10.7 2.90573 10.5497 2.90573 10.3762C2.90573 10.2026 2.96959 10.0521 3.0974 9.92517L9.33235 3.73385C9.45352 3.61359 9.60494 3.55341 9.78657 3.55341C9.96799 3.55341 10.1194 3.61359 10.2405 3.73385L13.8926 7.36051C14.0206 7.4875 14.0844 7.63779 14.0844 7.81141C14.0844 7.985 14.0205 8.13526 13.8926 8.26222Z" fill="#4125E2"/>
<path d="M9.78678 4.64502L12.975 7.81077L7.20416 13.5413L4.01611 10.3755L9.78678 4.64502Z" fill="#4125E2"/>
</g>
<defs>
<clipPath id="clip0">
<rect width="17" height="16.8811" fill="white" transform="translate(0 0.657227)"/>
</clipPath>
</defs>
</svg>
