<svg width="42" height="42" viewBox="0 0 42 42" fill="none" xmlns="http://www.w3.org/2000/svg">
<g clip-path="url(#clip0)">
<path d="M42 7.97738C40.4381 8.6625 38.7739 9.11662 37.0387 9.33712C38.8237 8.27137 40.1861 6.59662 40.8266 4.578C39.1624 5.57025 37.3249 6.27113 35.3666 6.66225C33.7864 4.97963 31.5341 3.9375 29.0771 3.9375C24.3101 3.9375 20.4724 7.80675 20.4724 12.5501C20.4724 13.2326 20.5301 13.8889 20.6719 14.5136C13.5135 14.1645 7.17938 10.7336 2.92425 5.50725C2.18138 6.79613 1.74563 8.27138 1.74563 9.8595C1.74563 12.8415 3.28125 15.4849 5.57025 17.0152C4.18687 16.989 2.82975 16.5874 1.68 15.9548C1.68 15.981 1.68 16.0151 1.68 16.0492C1.68 20.2335 4.66462 23.709 8.5785 24.5096C7.87762 24.7013 7.11375 24.7931 6.321 24.7931C5.76975 24.7931 5.21325 24.7616 4.69088 24.6461C5.8065 28.056 8.97225 30.5629 12.7365 30.6442C9.807 32.9359 6.08738 34.3166 2.06063 34.3166C1.3545 34.3166 0.67725 34.2851 0 34.1985C3.81412 36.6581 8.33438 38.0625 13.209 38.0625C29.0535 38.0625 37.716 24.9375 37.716 13.5608C37.716 13.1801 37.7029 12.8126 37.6845 12.4478C39.3934 11.235 40.8293 9.72038 42 7.97738Z" fill="white"/>
</g>
<defs>
<clipPath id="clip0">
<rect width="42" height="42" fill="white"/>
</clipPath>
</defs>
</svg>
