<svg width="56" height="56" viewBox="0 0 56 56" fill="none" xmlns="http://www.w3.org/2000/svg">
<g clip-path="url(#clip0)">
<path d="M55.7031 40.8792C55.6353 40.7331 55.5721 40.6119 55.5134 40.5148C54.5418 38.7649 52.6851 36.617 49.9444 34.0706L49.8865 34.0123L49.8575 33.9837L49.8282 33.9544H49.7988C48.5549 32.7686 47.7673 31.9714 47.4374 31.5632C46.8338 30.7856 46.6986 29.9985 47.0285 29.2011C47.2615 28.5985 48.1369 27.3261 49.6526 25.382C50.4499 24.3517 51.0813 23.5259 51.5476 22.9038C54.9107 18.4328 56.3687 15.5758 55.9214 14.3316L55.7477 14.0409C55.6309 13.8659 55.3297 13.7057 54.8443 13.5597C54.3578 13.414 53.7359 13.3899 52.9777 13.487L44.5807 13.545C44.4447 13.4968 44.2504 13.5013 43.9974 13.5597C43.7446 13.6181 43.6182 13.6474 43.6182 13.6474L43.4721 13.7204L43.356 13.8082C43.2588 13.8662 43.1519 13.9682 43.0352 14.114C42.9191 14.2593 42.8219 14.4299 42.7443 14.6242C41.8301 16.9762 40.7907 19.163 39.6242 21.1844C38.9049 22.3898 38.2444 23.4344 37.6411 24.3189C37.0387 25.2031 36.5333 25.8545 36.1254 26.2721C35.7169 26.6901 35.3483 27.0249 35.0172 27.2779C34.6866 27.5309 34.4343 27.6379 34.2595 27.5988C34.0844 27.5596 33.9195 27.5208 33.7633 27.482C33.4914 27.307 33.2726 27.0689 33.1077 26.7677C32.942 26.4664 32.8305 26.0872 32.7722 25.6304C32.7142 25.1733 32.6799 24.7802 32.6701 24.4496C32.661 24.1194 32.6652 23.6524 32.6849 23.0499C32.7051 22.4471 32.7142 22.0392 32.7142 21.8253C32.7142 21.0866 32.7286 20.2848 32.7575 19.4198C32.7869 18.5548 32.8107 17.8695 32.8306 17.3646C32.8504 16.8592 32.8596 16.3245 32.8596 15.7608C32.8596 15.197 32.8253 14.7549 32.7575 14.4341C32.6905 14.1136 32.5877 13.8025 32.4522 13.501C32.3158 13.1997 32.1163 12.9667 31.8544 12.8012C31.5921 12.636 31.2659 12.5049 30.8777 12.4074C29.8474 12.1743 28.5354 12.0482 26.9412 12.0286C23.3259 11.9898 21.0029 12.2232 19.9727 12.7286C19.5645 12.9422 19.1952 13.2339 18.8649 13.603C18.5149 14.0308 18.4661 14.2642 18.7188 14.3026C19.8852 14.4774 20.711 14.8954 21.197 15.5562L21.3721 15.9064C21.5083 16.159 21.6444 16.6063 21.7805 17.2477C21.9164 17.889 22.0042 18.5984 22.0428 19.3756C22.1398 20.7948 22.1398 22.0097 22.0428 23.0203C21.9454 24.0313 21.8535 24.8184 21.7658 25.3821C21.6781 25.9458 21.5469 26.4026 21.3721 26.7524C21.197 27.1022 21.0805 27.3161 21.022 27.3937C20.9637 27.4713 20.9151 27.5202 20.8765 27.5394C20.6239 27.6362 20.3611 27.6856 20.0891 27.6856C19.8168 27.6856 19.4865 27.5493 19.0978 27.2771C18.7093 27.0048 18.306 26.6308 17.888 26.1545C17.47 25.6781 16.9986 25.0124 16.4736 24.1572C15.949 23.302 15.4047 22.2913 14.8409 21.1251L14.3745 20.2793C14.083 19.7352 13.6847 18.9429 13.1793 17.9032C12.6736 16.8631 12.2266 15.857 11.838 14.885C11.6827 14.4769 11.4493 14.1661 11.1384 13.9523L10.9924 13.8645C10.8954 13.7869 10.7397 13.7045 10.526 13.6167C10.3121 13.529 10.0888 13.466 9.85539 13.4273L1.8664 13.4853C1.05003 13.4853 0.496114 13.6703 0.20445 14.0397L0.0877237 14.2144C0.0294115 14.3117 0 14.4672 0 14.6811C0 14.895 0.0583123 15.1574 0.175039 15.4682C1.34128 18.2092 2.60955 20.8526 3.97984 23.3989C5.35013 25.9453 6.54088 27.9964 7.55139 29.5505C8.5621 31.1058 9.59232 32.5736 10.642 33.9533C11.6918 35.3335 12.3866 36.2179 12.7266 36.6065C13.067 36.9958 13.3343 37.2869 13.5287 37.4812L14.2577 38.1808C14.7242 38.6474 15.4092 39.2063 16.3131 39.8573C17.2172 40.5087 18.2181 41.1501 19.3164 41.7823C20.4148 42.4135 21.6927 42.9287 23.1507 43.327C24.6085 43.7258 26.0274 43.8859 27.4076 43.8086H30.7607C31.4407 43.7499 31.9559 43.5361 32.3061 43.167L32.4221 43.0209C32.5002 42.9049 32.5732 42.7246 32.6406 42.4821C32.7088 42.2391 32.7427 41.9715 32.7427 41.6803C32.7228 40.8446 32.7864 40.0915 32.9318 39.4209C33.0772 38.7506 33.2428 38.2452 33.428 37.9048C33.6132 37.5647 33.8221 37.2778 34.0547 37.0451C34.2877 36.812 34.4538 36.6708 34.5512 36.6221C34.648 36.5732 34.7253 36.54 34.7836 36.5201C35.2501 36.3647 35.7991 36.5152 36.4315 36.9724C37.0633 37.4292 37.6559 37.9932 38.2103 38.6636C38.7643 39.3345 39.4299 40.0873 40.2073 40.923C40.9852 41.7589 41.6653 42.3804 42.2482 42.7892L42.8311 43.139C43.2204 43.3725 43.7258 43.5863 44.348 43.7807C44.969 43.9749 45.5131 44.0235 45.9803 43.9264L53.4442 43.81C54.1824 43.81 54.7569 43.6877 55.1643 43.4452C55.5726 43.2022 55.8152 42.9346 55.8934 42.6434C55.9714 42.352 55.9756 42.0213 55.9082 41.6516C55.8391 41.2828 55.7709 41.025 55.7031 40.8792Z" fill="white"/>
</g>
<defs>
<clipPath id="clip0">
<rect width="56" height="56" fill="white"/>
</clipPath>
</defs>
</svg>
