<svg width="138" height="125" viewBox="0 0 138 125" fill="none" xmlns="http://www.w3.org/2000/svg">
<circle cx="134" cy="121" r="4" fill="white" fill-opacity="0.45"/>
<g clip-path="url(#clip0)">
<path d="M107.976 6.93751C107.976 6.93751 110.241 3.39754 108.747 0.952061C108.174 0.0149097 106.95 -0.280639 106.013 0.291921C105.342 0.702207 105 1.44687 105.07 2.18079C104.45 1.78297 103.631 1.74748 102.959 2.15769C102.022 2.73025 101.727 3.95408 102.299 4.89127C103.793 7.33675 107.976 6.93751 107.976 6.93751Z" fill="white" fill-opacity="0.5"/>
<path d="M108.913 8.4703C108.913 8.4703 106.649 12.0102 108.143 14.4557C108.715 15.3929 109.939 15.6885 110.876 15.1158C111.548 14.7056 111.89 13.9609 111.819 13.227C112.44 13.6249 113.259 13.6604 113.93 13.2501C114.867 12.6776 115.163 11.4537 114.59 10.5166C113.096 8.07102 108.913 8.4703 108.913 8.4703Z" fill="white" fill-opacity="0.5"/>
<path d="M115.857 5.27244C115.447 4.60088 114.702 4.25884 113.968 4.32956C114.366 3.70875 114.401 2.89011 113.991 2.21858C113.418 1.28143 112.195 0.985841 111.258 1.55836C108.812 3.05246 109.211 7.23567 109.211 7.23567C109.211 7.23567 112.751 9.50009 115.197 8.00603C116.134 7.43347 116.429 6.2096 115.857 5.27244Z" fill="white" fill-opacity="0.5"/>
<path d="M102.921 11.0783C102.524 11.6991 102.488 12.5178 102.898 13.1893C103.471 14.1264 104.695 14.422 105.632 13.8495C108.077 12.3554 107.678 8.17214 107.678 8.17214C107.678 8.17214 104.138 5.90771 101.693 7.40186C100.756 7.97438 100.46 9.19825 101.033 10.1354C101.443 10.807 102.188 11.149 102.921 11.0783Z" fill="white" fill-opacity="0.5"/>
<path d="M107.068 13.2587C107.04 13.3197 107.012 13.3876 106.978 13.46C106.942 13.5318 106.907 13.6101 106.862 13.6907C106.777 13.8536 106.671 14.0313 106.544 14.2163C106.418 14.4015 106.271 14.5937 106.103 14.7853C105.936 14.9772 105.748 15.1684 105.544 15.3541C105.34 15.5398 105.119 15.7199 104.886 15.8912C104.654 16.0621 104.409 16.224 104.158 16.3758C103.657 16.6795 103.131 16.9397 102.627 17.155C102.122 17.3707 101.64 17.5416 101.223 17.6724C100.807 17.8033 100.456 17.8938 100.214 17.9505C100.093 17.9788 99.999 17.9987 99.9373 18.0109C99.9076 18.0164 99.8848 18.0206 99.8695 18.0234C99.8615 18.025 99.8591 18.0249 99.8569 18.0251C99.8547 18.0253 99.8506 18.0261 99.8511 18.026L100.445 20.0001C100.445 20.0001 100.457 19.9954 100.481 19.9863C100.5 19.9779 100.53 19.9654 100.569 19.9492C100.643 19.9169 100.748 19.8699 100.878 19.8083C101.139 19.685 101.503 19.5028 101.925 19.2641C102.346 19.0254 102.827 18.7299 103.32 18.382C103.812 18.0345 104.318 17.6344 104.785 17.1937C105.019 16.9735 105.244 16.7441 105.454 16.5081C105.664 16.2718 105.858 16.0293 106.033 15.7858C106.208 15.5422 106.363 15.2976 106.495 15.0587C106.628 14.82 106.739 14.587 106.828 14.3681C106.918 14.1493 106.988 13.9449 107.039 13.7614C107.066 13.6705 107.086 13.5833 107.106 13.5041C107.125 13.4244 107.138 13.3503 107.152 13.2843C107.176 13.1507 107.193 13.0463 107.201 12.9744C107.21 12.903 107.214 12.8649 107.214 12.8649C107.214 12.8649 107.202 12.9012 107.178 12.9692C107.156 13.0372 107.117 13.1354 107.068 13.2587Z" fill="white" fill-opacity="0.5"/>
</g>
<g clip-path="url(#clip1)">
<path d="M7.00056 87.2598L10.9186 89.6227C11.1903 89.7873 11.5259 89.5437 11.454 89.2339L7.00056 87.2598ZM7.00056 87.2598L3.08249 89.6227C2.81012 89.7866 2.47523 89.5429 2.54709 89.2339M7.00056 87.2598L2.54709 89.2339M2.54709 89.2339L3.58339 84.7769M2.54709 89.2339L3.58339 84.7769M3.58339 84.7769L0.124529 81.7801M3.58339 84.7769L0.124529 81.7801M0.124529 81.7801C-0.1155 81.5724 0.0124195 81.1779 0.329344 81.1506L0.124529 81.7801ZM8.65137 80.9542L8.76873 81.232L9.06916 81.2578L13.2968 81.621L10.0903 84.399L9.86244 84.5964L9.93073 84.8901L10.8915 89.0225L7.25878 86.8316L7.00056 86.6759L6.74234 86.8316L3.10959 89.0225L4.0704 84.8901L4.13868 84.5964L3.91079 84.399L0.703606 81.6202L4.93125 81.2571L5.23165 81.2313L5.34902 80.9535L7.00019 77.0461L8.65137 80.9542ZM3.0341 89.3472L3.0341 89.3472L3.0341 89.3472Z" stroke="white" stroke-opacity="0.55"/>
</g>
<defs>
<clipPath id="clip0">
<rect width="20" height="20" fill="white" transform="translate(98)"/>
</clipPath>
<clipPath id="clip1">
<rect width="14" height="14" fill="white" transform="translate(0 76)"/>
</clipPath>
</defs>
</svg>
