<svg width="413" height="199" viewBox="0 0 413 199" fill="none" xmlns="http://www.w3.org/2000/svg">
<circle cx="338.719" cy="124.719" r="73.719" fill="white" fill-opacity="0.05"/>
<circle cx="73.719" cy="116.041" r="73.719" fill="white" fill-opacity="0.05"/>
<circle cx="135.207" cy="70.4216" r="41.3223" fill="white" fill-opacity="0.05"/>
<g clip-path="url(#clip0)">
<path d="M298.828 39.6363C298.828 39.6363 300.325 37.2959 299.337 35.679C298.959 35.0594 298.15 34.864 297.53 35.2426C297.086 35.5138 296.86 36.0062 296.907 36.4914C296.496 36.2284 295.955 36.2049 295.511 36.4761C294.891 36.8547 294.696 37.6638 295.074 38.2835C296.062 39.9003 298.828 39.6363 298.828 39.6363Z" fill="white" fill-opacity="0.5"/>
<path d="M299.447 40.6498C299.447 40.6498 297.95 42.9902 298.938 44.6071C299.316 45.2267 300.125 45.4221 300.745 45.0435C301.189 44.7723 301.415 44.28 301.368 43.7947C301.779 44.0578 302.32 44.0812 302.764 43.81C303.384 43.4314 303.579 42.6223 303.201 42.0027C302.213 40.3858 299.447 40.6498 299.447 40.6498Z" fill="white" fill-opacity="0.5"/>
<path d="M304.038 38.5355C303.766 38.0915 303.274 37.8654 302.789 37.9121C303.052 37.5017 303.075 36.9604 302.804 36.5165C302.426 35.8968 301.616 35.7014 300.997 36.0799C299.38 37.0678 299.644 39.8335 299.644 39.8335C299.644 39.8335 301.984 41.3307 303.601 40.3429C304.221 39.9643 304.416 39.1551 304.038 38.5355Z" fill="white" fill-opacity="0.5"/>
<path d="M295.486 42.3741C295.223 42.7845 295.199 43.3258 295.471 43.7698C295.849 44.3894 296.658 44.5848 297.278 44.2063C298.895 43.2185 298.631 40.4527 298.631 40.4527C298.631 40.4527 296.29 38.9555 294.673 39.9434C294.054 40.3219 293.858 41.1311 294.237 41.7507C294.508 42.1947 295.001 42.4209 295.486 42.3741Z" fill="white" fill-opacity="0.5"/>
<path d="M298.227 43.8157C298.209 43.856 298.19 43.9009 298.168 43.9487C298.144 43.9962 298.121 44.0479 298.091 44.1013C298.035 44.209 297.964 44.3265 297.881 44.4488C297.797 44.5712 297.7 44.6983 297.589 44.825C297.478 44.9518 297.354 45.0783 297.219 45.2011C297.084 45.3238 296.938 45.4428 296.785 45.5562C296.631 45.6691 296.469 45.7762 296.303 45.8765C295.972 46.0773 295.624 46.2494 295.291 46.3917C294.957 46.5343 294.638 46.6473 294.363 46.7338C294.087 46.8204 293.856 46.8802 293.696 46.9177C293.616 46.9364 293.553 46.9495 293.513 46.9576C293.493 46.9612 293.478 46.964 293.468 46.9659C293.462 46.9669 293.461 46.9669 293.459 46.967C293.458 46.9671 293.455 46.9677 293.456 46.9676L293.848 48.2727C293.848 48.2727 293.856 48.2697 293.872 48.2636C293.885 48.2581 293.904 48.2498 293.93 48.2391C293.979 48.2178 294.048 48.1867 294.135 48.146C294.307 48.0644 294.548 47.944 294.827 47.7862C295.105 47.6283 295.423 47.433 295.749 47.2029C296.075 46.9732 296.409 46.7086 296.718 46.4173C296.873 46.2717 297.021 46.12 297.16 45.964C297.299 45.8078 297.427 45.6474 297.543 45.4864C297.658 45.3254 297.761 45.1637 297.848 45.0057C297.936 44.8479 298.009 44.6939 298.069 44.5492C298.128 44.4045 298.174 44.2694 298.208 44.148C298.226 44.0879 298.239 44.0303 298.252 43.9779C298.264 43.9252 298.274 43.8762 298.283 43.8325C298.298 43.7442 298.31 43.6752 298.315 43.6277C298.321 43.5805 298.324 43.5553 298.324 43.5553C298.324 43.5553 298.315 43.5793 298.3 43.6242C298.285 43.6692 298.26 43.7341 298.227 43.8157Z" fill="white" fill-opacity="0.5"/>
</g>
<g clip-path="url(#clip1)">
<path d="M134.462 123.257L135.303 125.247L137.456 125.432C137.606 125.445 137.666 125.632 137.553 125.73L135.92 127.145L136.409 129.249C136.443 129.396 136.285 129.511 136.156 129.433L134.306 128.317L132.456 129.433C132.327 129.51 132.169 129.395 132.203 129.249L132.692 127.145L131.059 125.729C130.945 125.631 131.006 125.445 131.156 125.432L133.309 125.247L134.15 123.257C134.208 123.118 134.404 123.118 134.462 123.257Z" fill="white" fill-opacity="0.55"/>
</g>
<g clip-path="url(#clip2)">
<path d="M335.678 69.661L336.435 71.4524L338.373 71.6189C338.507 71.6305 338.562 71.7982 338.46 71.8865L336.99 73.1599L337.43 75.0542C337.461 75.1859 337.318 75.2894 337.203 75.2195L335.537 74.2152L333.872 75.2195C333.756 75.2891 333.614 75.1856 333.645 75.0542L334.085 73.1599L332.615 71.8862C332.513 71.7979 332.567 71.6302 332.702 71.6186L334.64 71.4521L335.397 69.661C335.449 69.5363 335.625 69.5363 335.678 69.661Z" fill="white" fill-opacity="0.5"/>
</g>
<g clip-path="url(#clip3)">
<path d="M187.769 7.45226L190.36 9.01452C190.539 9.12333 190.761 8.96226 190.714 8.75747M187.769 7.45226L190.714 8.75747M187.769 7.45226L185.179 9.01452C184.999 9.12285 184.777 8.96178 184.825 8.75747L187.769 7.45226ZM190.714 8.75747L190.483 8.81099L190.482 8.81114L190.226 8.87048L190.227 8.8707L190.482 8.81127L190.483 8.81112L190.714 8.75747ZM188.704 3.34922L188.822 3.62698L189.122 3.65279L191.518 3.85859L189.701 5.43275L189.473 5.63019L189.541 5.92389L190.086 8.26555L188.027 7.0241L187.769 6.86837L187.511 7.0241L185.452 8.26555L185.997 5.92389L186.065 5.6302L185.837 5.43276L184.02 3.85812L186.415 3.65231L186.716 3.6265L186.833 3.34877L187.769 1.13472L188.704 3.34922ZM191.987 3.4519L191.987 3.45214C191.987 3.45199 191.987 3.45184 191.988 3.45169L191.987 3.4519Z" stroke="white" stroke-opacity="0.55"/>
</g>
<circle cx="323.967" cy="113.727" r="2.64463" fill="white" fill-opacity="0.45"/>
<circle cx="235.703" cy="31.4133" r="1.65289" fill="white" fill-opacity="0.65"/>
<defs>
<clipPath id="clip0">
<rect width="13.2231" height="13.2231" fill="white" transform="translate(292.231 35.0496)"/>
</clipPath>
<clipPath id="clip1">
<rect width="6.61157" height="6.61157" fill="white" transform="translate(131 123)"/>
</clipPath>
<clipPath id="clip2">
<rect width="5.95041" height="5.95041" fill="white" transform="translate(332.562 69.4298)"/>
</clipPath>
<clipPath id="clip3">
<rect width="9.2562" height="9.2562" fill="white" transform="translate(183.141 0.00830078)"/>
</clipPath>
</defs>
</svg>
