<svg width="605" height="346" viewBox="0 0 605 346" fill="none" xmlns="http://www.w3.org/2000/svg">
<circle cx="493.5" cy="111.5" r="111.5" fill="white" fill-opacity="0.05"/>
<circle cx="111.5" cy="234.5" r="111.5" fill="white" fill-opacity="0.05"/>
<circle cx="204.5" cy="165.5" r="62.5" fill="white" fill-opacity="0.05"/>
<g clip-path="url(#clip0)">
<path d="M193.237 218.389L194.509 221.4L197.765 221.679C197.991 221.699 198.083 221.981 197.911 222.129L195.441 224.269L196.181 227.453C196.233 227.674 195.993 227.848 195.799 227.73L193 226.043L190.202 227.73C190.007 227.847 189.768 227.673 189.819 227.453L190.56 224.269L188.089 222.129C187.917 221.98 188.009 221.698 188.235 221.679L191.492 221.399L192.764 218.389C192.852 218.18 193.148 218.18 193.237 218.389Z" fill="white" fill-opacity="0.55"/>
</g>
<g clip-path="url(#clip1)">
<path d="M479.713 135.35L480.858 138.06L483.789 138.311C483.992 138.329 484.075 138.583 483.92 138.716L481.697 140.642L482.363 143.507C482.41 143.707 482.194 143.863 482.019 143.757L479.5 142.238L476.982 143.757C476.807 143.863 476.591 143.706 476.637 143.507L477.304 140.642L475.08 138.716C474.926 138.582 475.008 138.329 475.212 138.311L478.143 138.059L479.287 135.35C479.367 135.162 479.633 135.162 479.713 135.35Z" fill="white" fill-opacity="0.5"/>
</g>
<g clip-path="url(#clip2)">
<path d="M284.001 70.2597L287.919 72.6226C288.19 72.7872 288.526 72.5435 288.454 72.2338L284.001 70.2597ZM284.001 70.2597L280.082 72.6226C279.81 72.7864 279.475 72.5428 279.547 72.2338M284.001 70.2597L279.547 72.2338M279.547 72.2338L280.583 67.7767M279.547 72.2338L280.583 67.7767M280.583 67.7767L277.125 64.78M280.583 67.7767L277.125 64.78M277.125 64.78C276.884 64.5723 277.012 64.1777 277.329 64.1504L277.125 64.78ZM285.651 63.9541L285.769 64.2318L286.069 64.2577L290.297 64.6208L287.09 67.3988L286.862 67.5963L286.931 67.89L287.892 72.0223L284.259 69.8315L284.001 69.6758L283.742 69.8315L280.11 72.0223L281.07 67.89L281.139 67.5963L280.911 67.3988L277.704 64.6201L281.931 64.2569L282.232 64.2311L282.349 63.9534L284 60.046L285.651 63.9541ZM280.034 72.3471L280.034 72.347L280.034 72.3471Z" stroke="white" stroke-opacity="0.55"/>
</g>
<circle cx="476" cy="228" r="4" fill="white" fill-opacity="0.45"/>
<circle cx="356.5" cy="106.5" r="2.5" fill="white" fill-opacity="0.65"/>
<defs>
<clipPath id="clip0">
<rect width="10" height="10" fill="white" transform="translate(188 218)"/>
</clipPath>
<clipPath id="clip1">
<rect width="9" height="9" fill="white" transform="translate(475 135)"/>
</clipPath>
<clipPath id="clip2">
<rect width="14" height="14" fill="white" transform="translate(277 59)"/>
</clipPath>
</defs>
</svg>
