<svg width="450" height="326" viewBox="0 0 450 326" fill="none" xmlns="http://www.w3.org/2000/svg">
<mask id="mask0" mask-type="alpha" maskUnits="userSpaceOnUse" x="15" y="10" width="420" height="298">
<rect x="15" y="10" width="420" height="298" rx="8" fill="#F9C828"/>
<rect x="15" y="10" width="420" height="298" rx="8" fill="url(#paint0_linear)"/>
<rect x="15" y="10" width="420" height="298" rx="8" fill="url(#paint1_linear)" fill-opacity="0.5"/>
</mask>
<g mask="url(#mask0)">
<circle cx="405.5" cy="91.5" r="111.5" fill="white" fill-opacity="0.05"/>
<circle cx="23.5" cy="214.5" r="111.5" fill="white" fill-opacity="0.05"/>
<circle cx="116.5" cy="145.5" r="62.5" fill="white" fill-opacity="0.05"/>
<g clip-path="url(#clip0)">
<path d="M105.237 198.389L106.509 201.4L109.765 201.68C109.991 201.699 110.083 201.981 109.911 202.129L107.441 204.269L108.181 207.453C108.233 207.674 107.993 207.848 107.799 207.731L105 206.043L102.202 207.731C102.007 207.848 101.768 207.674 101.819 207.453L102.56 204.269L100.089 202.129C99.9175 201.98 100.009 201.699 100.235 201.679L103.492 201.399L104.764 198.389C104.852 198.18 105.148 198.18 105.237 198.389Z" fill="white" fill-opacity="0.55"/>
</g>
<g clip-path="url(#clip1)">
<path d="M391.713 115.35L392.858 118.06L395.789 118.311C395.992 118.329 396.075 118.583 395.92 118.716L393.697 120.642L394.363 123.507C394.41 123.707 394.194 123.863 394.019 123.757L391.5 122.238L388.982 123.757C388.807 123.863 388.591 123.706 388.637 123.507L389.304 120.642L387.08 118.716C386.926 118.582 387.008 118.329 387.212 118.311L390.143 118.059L391.287 115.35C391.367 115.162 391.633 115.162 391.713 115.35Z" fill="white" fill-opacity="0.5"/>
</g>
<g clip-path="url(#clip2)">
<path d="M196.001 50.2598L199.919 52.6227C200.19 52.7873 200.526 52.5437 200.454 52.2339L196.001 50.2598ZM196.001 50.2598L192.082 52.6227C191.81 52.7866 191.475 52.5429 191.547 52.2339M196.001 50.2598L191.547 52.2339M191.547 52.2339L192.583 47.7769M191.547 52.2339L192.583 47.7769M192.583 47.7769L189.125 44.7801M192.583 47.7769L189.125 44.7801M189.125 44.7801C188.884 44.5724 189.012 44.1779 189.329 44.1506L189.125 44.7801ZM197.651 43.9542L197.769 44.232L198.069 44.2578L202.297 44.621L199.09 47.399L198.862 47.5964L198.931 47.8901L199.892 52.0225L196.259 49.8316L196.001 49.6759L195.742 49.8316L192.11 52.0225L193.07 47.8901L193.139 47.5964L192.911 47.399L189.704 44.6202L193.931 44.2571L194.232 44.2313L194.349 43.9535L196 40.0461L197.651 43.9542ZM192.034 52.3472L192.034 52.3472L192.034 52.3472Z" stroke="white" stroke-opacity="0.55"/>
</g>
<circle cx="388" cy="208" r="4" fill="white" fill-opacity="0.45"/>
<circle cx="268.5" cy="86.5" r="2.5" fill="white" fill-opacity="0.65"/>
</g>
<defs>
<linearGradient id="paint0_linear" x1="225" y1="251" x2="225" y2="10" gradientUnits="userSpaceOnUse">
<stop stop-color="#FEA002"/>
<stop offset="1" stop-color="#FEA613" stop-opacity="0"/>
</linearGradient>
<linearGradient id="paint1_linear" x1="581" y1="308" x2="96.0113" y2="606.736" gradientUnits="userSpaceOnUse">
<stop stop-color="white" stop-opacity="0"/>
<stop offset="0.515625" stop-color="white" stop-opacity="0.25"/>
<stop offset="1" stop-color="white" stop-opacity="0"/>
</linearGradient>
<clipPath id="clip0">
<rect width="10" height="10" fill="white" transform="translate(100 198)"/>
</clipPath>
<clipPath id="clip1">
<rect width="9" height="9" fill="white" transform="translate(387 115)"/>
</clipPath>
<clipPath id="clip2">
<rect width="14" height="14" fill="white" transform="translate(189 39)"/>
</clipPath>
</defs>
</svg>
