<svg width="85" height="85" viewBox="0 0 85 85" fill="none" xmlns="http://www.w3.org/2000/svg">
<path d="M84.1061 15.432L82.069 24.5182L79.8707 34.3225L77.6724 44.1415L76.075 51.2639C75.962 51.7706 75.5893 52.1797 75.0953 52.3393C74.6014 52.499 74.0598 52.3853 73.6716 52.0406C71.6471 50.1125 69.2046 48.6781 66.5345 47.8493C63.2384 46.923 59.7906 46.664 56.3931 47.0872C52.7824 47.5141 49.2002 48.1551 45.6656 49.007C42.1292 49.8471 38.5474 50.4832 34.938 50.9122C31.5405 51.3354 28.0927 51.0763 24.7966 50.1501V50.1355C21.2829 49.0326 18.173 46.9168 15.8569 44.0536L18.0552 34.2493L20.2681 24.4303L22.4664 14.626L24.6647 4.80701C26.9802 7.67408 30.0898 9.7947 33.6043 10.9036C36.8955 11.8292 40.3384 12.0883 43.7311 11.6656C47.3415 11.2438 50.9237 10.6076 54.4587 9.76046C58.0002 8.92158 61.5868 8.28549 65.2009 7.85528C68.5935 7.4326 72.0364 7.69169 75.3276 8.61735C78.5997 9.6322 81.5233 11.5407 83.769 14.1277C84.0864 14.482 84.212 14.9683 84.1061 15.432Z" fill="#E6E7E8"/>
<path d="M31.406 20.7225C30.6586 23.9906 29.9258 27.2441 29.1931 30.5122C25.6838 29.4086 22.5788 27.2928 20.2681 24.4303L22.4663 14.626C24.7819 17.4931 27.8914 19.6137 31.406 20.7225Z" fill="#2C2F38"/>
<path d="M26.9949 40.331C26.8483 40.9905 26.7018 41.6354 26.5552 42.2948C25.969 44.9181 25.3828 47.5316 24.7966 50.1354C21.2829 49.0325 18.173 46.9167 15.8569 44.0535L18.0552 34.2491C20.3671 37.117 23.4785 39.2338 26.9949 40.331Z" fill="#2C2F38"/>
<path d="M43.7308 11.6655C42.998 14.9336 42.2652 18.2164 41.5325 21.4845C38.1399 21.9077 34.6968 21.6486 31.4058 20.7224C32.1239 17.4543 32.8713 14.1715 33.604 10.9034C36.8952 11.8291 40.3381 12.0882 43.7308 11.6655Z" fill="#2C2F38"/>
<path d="M47.8638 39.1879C47.7173 39.8473 47.5707 40.4922 47.4242 41.1517C46.838 43.7749 46.2518 46.3836 45.6656 49.0068C42.1292 49.8469 38.5474 50.483 34.938 50.912C35.5242 48.2887 36.1104 45.6801 36.6966 43.0568C36.8432 42.3974 36.9897 41.7525 37.1363 41.093C40.7453 40.6615 44.3269 40.0255 47.8638 39.1879Z" fill="#2C2F38"/>
<path d="M65.2008 7.85535L63.0025 17.6597C59.3871 18.0878 55.8001 18.7288 52.2603 19.5795C52.993 16.3114 53.7258 13.0286 54.4585 9.76052C58.0001 8.92164 61.5867 8.28555 65.2008 7.85535Z" fill="#2C2F38"/>
<path d="M68.7327 38.0595C68.5862 38.7043 68.4396 39.3638 68.2931 40.0086C67.7069 42.6172 67.1207 45.2405 66.5344 47.8491C63.2384 46.9229 59.7906 46.6638 56.3931 47.0871C56.9793 44.4784 57.5655 41.8552 58.1517 39.2465C58.2982 38.5871 58.4448 37.9422 58.5913 37.2827C61.9896 36.8575 65.4388 37.1217 68.7327 38.0595Z" fill="#2C2F38"/>
<path d="M79.8704 34.3226L77.6721 44.1416C75.356 41.2783 72.2461 39.1626 68.7324 38.0597C69.4652 34.7916 70.1979 31.5186 70.9307 28.2407C74.4444 29.3436 77.5543 31.4593 79.8704 34.3226Z" fill="#2C2F38"/>
<path d="M84.1056 15.4321L82.0686 24.5183C79.7525 21.655 76.6426 19.5393 73.1289 18.4364C73.8617 15.1683 74.5944 11.8953 75.3272 8.61743C78.5992 9.63228 81.5228 11.5407 83.7686 14.1278C84.0859 14.4821 84.2116 14.9684 84.1056 15.4321Z" fill="#2C2F38"/>
<path d="M73.1292 18.4363L70.9309 28.2406C67.642 27.3028 64.1976 27.0387 60.8042 27.4639L63.0025 17.6596C66.3959 17.2343 69.8403 17.4985 73.1292 18.4363Z" fill="#2C2F38"/>
<path d="M39.3343 31.2891L37.136 41.0934C33.7389 41.5313 30.2882 41.272 26.9946 40.3313C27.7274 37.0632 28.4601 33.7804 29.1929 30.5123C32.4867 31.4507 35.936 31.7149 39.3343 31.2891Z" fill="#2C2F38"/>
<path d="M52.2603 19.5793C51.5276 22.8475 50.7948 26.1009 50.0621 29.369C46.5271 30.2196 42.945 30.8607 39.3345 31.2888L41.5327 21.4845C45.142 21.0543 48.7237 20.4182 52.2603 19.5793Z" fill="#2C2F38"/>
<path d="M60.8043 27.464C60.0569 30.7321 59.3241 34.0149 58.5914 37.283C54.9819 37.7119 51.4002 38.348 47.8638 39.1881C48.5965 35.92 49.3293 32.6373 50.062 29.3692C53.6036 28.5303 57.1902 27.8942 60.8043 27.464Z" fill="#2C2F38"/>
<path d="M26.2033 4.0596C26.1981 4.35536 26.1637 4.64989 26.1007 4.93891L8.85154 81.8639C8.61978 82.9056 7.98193 83.8117 7.07949 84.3812C6.17705 84.9507 5.08465 85.1366 4.04464 84.8975L3.89809 84.8536C1.81122 84.3088 0.529137 82.2109 0.996367 80.1053L18.2455 3.16563C18.7391 1.00327 20.8881 -0.352987 23.0524 0.132012H23.0817C24.9062 0.560318 26.1979 2.18548 26.2033 4.0596Z" fill="#AF8066"/>
<path d="M26.2031 4.05954C26.1979 4.35531 26.1636 4.64984 26.1005 4.93885L8.8514 81.8639C8.61964 82.9055 7.98179 83.8116 7.07935 84.3811C6.17691 84.9507 5.08451 85.1365 4.0445 84.8975L3.89795 84.8535L23.0816 0.131958C24.9061 0.560264 26.1977 2.18543 26.2031 4.05954Z" fill="#7F5B53"/>
</svg>
