<svg width="78" height="78" viewBox="0 0 78 78" fill="none" xmlns="http://www.w3.org/2000/svg">
<path d="M77.1225 56.626L62.4975 44.4385C61.7711 43.8292 60.7571 43.7073 59.904 44.1022C59.046 44.5068 58.5 45.3648 58.5 46.3105V53.623H54.4196C51.0364 53.623 47.9456 51.907 46.1516 49.0405L30.3664 23.788C26.7833 18.0502 20.6017 14.623 13.8304 14.623H0V24.373H13.8304C17.2136 24.373 20.3044 26.089 22.0984 28.9555L37.8836 54.208C41.4716 59.9459 47.6531 63.373 54.4196 63.373H58.5V70.6855C58.5 71.6313 59.046 72.4893 59.904 72.8939C60.2306 73.045 60.5865 73.123 60.9375 73.123C61.4981 73.123 62.0539 72.9329 62.4975 72.5575L77.1225 60.37C77.6831 59.9069 78 59.2195 78 58.498C78 57.7765 77.6831 57.0892 77.1225 56.626Z" fill="#FFA000"/>
<path d="M77.1225 17.6263L62.4975 5.43883C61.7711 4.83433 60.7571 4.70758 59.904 5.10733C59.046 5.5022 58.5 6.36508 58.5 7.31083V14.6233H54.4196C47.6483 14.6233 41.4668 18.0505 37.8836 23.7883L22.1033 49.0408C20.3092 51.9073 17.2136 53.6233 13.8304 53.6233H0V63.3733H13.8304C20.5969 63.3733 26.7784 59.9462 30.3664 54.2083L46.1467 28.9558C47.9456 26.0893 51.0364 24.3733 54.4196 24.3733H58.5V31.6858C58.5 32.6316 59.046 33.4945 59.904 33.8942C60.2306 34.0453 60.5865 34.1233 60.9375 34.1233C61.4981 34.1233 62.0539 33.9283 62.4975 33.5578L77.1225 21.3703C77.6831 20.9072 78 20.2198 78 19.4983C78 18.7768 77.6831 18.0895 77.1225 17.6263Z" fill="#FFC107"/>
</svg>
