<svg width="86" height="86" viewBox="0 0 86 86" fill="none" xmlns="http://www.w3.org/2000/svg">
<g clip-path="url(#clip0)">
<path d="M69.8722 6.02731L62.4589 0.89502C60.9749 2.51978 58.4824 2.83893 56.623 1.55161L19.4756 55.2077C21.335 56.495 21.9137 58.9403 20.9152 60.9011L28.3284 66.0334C29.8124 64.4087 32.3049 64.0895 34.1643 65.3768C36.0237 66.6642 36.6024 69.1094 35.604 71.0703L43.0171 76.2026C44.5011 74.5778 46.9936 74.2587 48.8531 75.546L86.0004 21.8898C84.141 20.6025 83.5624 18.1572 84.5608 16.1963L77.1476 11.064C75.6636 12.6888 73.1711 13.0079 71.3117 11.7206C69.4524 10.4335 68.8738 7.98802 69.8722 6.02731Z" fill="#F2CC7B"/>
<path d="M47.5254 68.5003L72.8848 31.8691L51.8989 17.3408L26.5395 53.972L47.5254 68.5003Z" fill="#F25F60"/>
<path d="M43.0625 38.3184L49.2837 40.1844L52.9809 34.8441L53.1287 41.3375L59.3501 43.2036L53.2201 45.3508L53.3679 51.8441L49.4316 46.6777L43.3017 48.825L46.9989 43.4848L43.0625 38.3184Z" fill="#F2F2F2"/>
<path opacity="0.1" d="M41.4478 75.1166L55.5026 15.2213L51.1102 14.1906L51.4834 10.3117L50.6876 10.1251L19.4756 55.2077C21.335 56.495 21.9137 58.9403 20.9152 60.9012L28.3286 66.0335C29.8124 64.4087 32.3051 64.0896 34.1645 65.3769C36.0239 66.6642 36.6025 69.1095 35.6041 71.0704L41.4478 75.1166Z" fill="black"/>
<path d="M28.8766 9.96947L20.0987 7.90967C19.3131 9.96494 17.1107 11.1752 14.9091 10.6585L0 74.1931C2.20157 74.7098 3.63603 76.7731 3.42539 78.9636L12.2033 81.0234C12.9889 78.9682 15.1913 77.7579 17.3929 78.2746C19.5944 78.7913 21.0289 80.8546 20.8183 83.0451L29.5962 85.1049C30.3817 83.0496 32.5842 81.8394 34.7857 82.3561L49.6945 18.8216C47.4929 18.3051 46.0585 16.2416 46.2691 14.0511L37.4914 11.9913C36.7058 14.0466 34.5034 15.2568 32.3018 14.7401C30.1001 14.2231 28.6659 12.16 28.8766 9.96947Z" fill="#FFD782"/>
<path d="M15.5608 22.0237C15.4513 22.0237 15.3398 22.0111 15.2284 21.9851L12.4062 21.3228C11.6268 21.1401 11.1432 20.36 11.3263 19.5806C11.5091 18.8014 12.2891 18.3177 13.0685 18.5008L15.8907 19.1631C16.6701 19.3458 17.1537 20.1259 16.9706 20.9052C16.8142 21.5729 16.2184 22.0237 15.5608 22.0237Z" fill="#FF6465"/>
<path d="M38.8744 27.4941C38.7649 27.4941 38.6535 27.4815 38.542 27.4555L32.7136 26.0877C31.9343 25.9049 31.4507 25.1249 31.6338 24.3455C31.8165 23.5663 32.5961 23.0826 33.3759 23.2656L39.2043 24.6334C39.9837 24.8162 40.4673 25.5962 40.2842 26.3756C40.1278 27.0434 39.5322 27.4941 38.8744 27.4941ZM27.2179 24.7589C27.1083 24.7589 26.997 24.7463 26.8854 24.7203L21.0571 23.3525C20.2777 23.1697 19.7941 22.3897 19.9772 21.6103C20.16 20.8309 20.9397 20.3473 21.7194 20.5304L27.5477 21.8982C28.3271 22.081 28.8107 22.861 28.6276 23.6404C28.4711 24.3082 27.8756 24.7589 27.2179 24.7589Z" fill="#FF6465"/>
<path d="M47.5247 29.5242C47.4152 29.5242 47.3037 29.5116 47.1923 29.4856L44.3701 28.8233C43.5907 28.6405 43.1071 27.8605 43.2902 27.0811C43.4729 26.3019 44.2532 25.8182 45.0324 26.0012L47.8546 26.6635C48.634 26.8463 49.1175 27.6263 48.9345 28.4057C48.7779 29.0736 48.1825 29.5242 47.5247 29.5242Z" fill="#FF6465"/>
<path d="M30.9735 76.2876L41.1543 32.9133L16.3053 27.0808L6.12449 70.455L30.9735 76.2876Z" fill="#FF6465"/>
<path d="M15.7607 49.8367L22.2329 49.2938L23.7169 42.9706L26.2331 48.9583L32.7055 48.4155L27.7883 52.659L30.3045 58.647L24.7493 55.2817L19.8321 59.5253L21.316 53.2019L15.7607 49.8367Z" fill="white"/>
<path d="M53.595 12.4656C53.3103 12.4656 53.0229 12.3821 52.7712 12.2078L50.3878 10.5576C49.7295 10.1019 49.5654 9.19894 50.0211 8.54084C50.4768 7.88257 51.38 7.71846 52.0379 8.17416L54.4214 9.82429C55.0796 10.28 55.2437 11.183 54.788 11.8411C54.5065 12.2476 54.0545 12.4656 53.595 12.4656Z" fill="#F25F60"/>
<path d="M73.2835 26.0964C72.9988 26.0964 72.7114 26.0128 72.4598 25.8386L67.5376 22.4308C66.8793 21.9751 66.7152 21.0721 67.1709 20.4142C67.6266 19.7559 68.5296 19.5918 69.1877 20.0475L74.1099 23.4553C74.7682 23.911 74.9323 24.814 74.4766 25.4719C74.1951 25.8782 73.7431 26.0964 73.2835 26.0964ZM63.4393 19.2809C63.1546 19.2809 62.8672 19.1973 62.6156 19.0231L57.6934 15.6153C57.0352 15.1596 56.871 14.2566 57.3267 13.5987C57.7824 12.9404 58.6856 12.7763 59.3436 13.232L64.2657 16.6398C64.924 17.0955 65.0881 17.9985 64.6324 18.6566C64.3509 19.0629 63.8989 19.2809 63.4393 19.2809Z" fill="#F25F60"/>
<path d="M80.5891 31.1543C80.3044 31.1543 80.017 31.0707 79.7654 30.8965L77.3819 29.2464C76.7236 28.7907 76.5595 27.8877 77.0152 27.2296C77.4709 26.5713 78.3741 26.4072 79.032 26.8629L81.4155 28.513C82.0738 28.9687 82.2379 29.8717 81.7822 30.5298C81.5008 30.9361 81.0487 31.1543 80.5891 31.1543Z" fill="#F25F60"/>
</g>
<defs>
<clipPath id="clip0">
<rect width="86" height="86" fill="white"/>
</clipPath>
</defs>
</svg>
