<svg width="98" height="98" viewBox="0 0 98 98" fill="none" xmlns="http://www.w3.org/2000/svg">
<path d="M33.2246 88.0361H63.1162L68.0981 98H28.2427L33.2246 88.0361Z" fill="#FFD33F"/>
<path d="M48.1704 91.3575C72.9334 91.3575 93.0078 71.2831 93.0078 46.5201C93.0078 21.7571 72.9334 1.68274 48.1704 1.68274C23.4074 1.68274 3.33301 21.7571 3.33301 46.5201C3.33301 71.2831 23.4074 91.3575 48.1704 91.3575Z" fill="#EC4B97"/>
<path d="M72.5241 8.88171C85.979 29.6638 80.0393 57.4186 59.2574 70.8736C44.4334 80.471 25.3562 80.471 10.5322 70.8736C23.9687 91.6742 51.7235 97.644 72.5241 84.2075C93.3247 70.771 99.2945 43.0163 85.858 22.2156C82.4088 16.8761 77.8637 12.3309 72.5241 8.88171Z" fill="#9E1566"/>
<path d="M48.1704 84.715C69.2648 84.715 86.3652 67.6145 86.3652 46.5201C86.3652 25.4257 69.2648 8.32532 48.1704 8.32532C27.076 8.32532 9.97559 25.4257 9.97559 46.5201C9.97559 67.6145 27.076 84.715 48.1704 84.715Z" fill="#FFD33F"/>
<path d="M94.9192 26.5923C94.2718 26.5925 93.6833 26.2165 93.4113 25.6291C89.7673 17.7686 84.1454 10.9887 77.0955 5.95213C76.3495 5.41844 76.1774 4.38075 76.7111 3.63471C77.2448 2.88866 78.2825 2.71658 79.0285 3.25027C86.5446 8.62307 92.5391 15.8531 96.4271 24.2342C96.8115 25.0666 96.4489 26.053 95.6167 26.4378C95.3985 26.5402 95.1602 26.5929 94.9192 26.5923Z" fill="white"/>
<path d="M91.983 9.9859C91.5029 9.9859 91.0462 9.77832 90.7309 9.4163C88.6987 7.08953 86.4811 4.93132 84.1 2.96304C83.3807 2.39385 83.2591 1.34952 83.8283 0.630249C84.3974 -0.0890177 85.4418 -0.21066 86.161 0.358526C86.1789 0.372641 86.1967 0.38738 86.214 0.402325C88.7363 2.48436 91.0838 4.7692 93.2335 7.23422C93.8361 7.92567 93.7641 8.97457 93.0726 9.57718C92.7706 9.84039 92.3837 9.98549 91.983 9.9859Z" fill="white"/>
<path d="M96.3293 15.6321C95.7769 15.6329 95.2602 15.3591 94.9509 14.9014L94.5125 14.2621C93.9942 13.5054 94.1872 12.4719 94.9439 11.9536C95.6903 11.4421 96.7087 11.6225 97.2343 12.359L97.7043 13.0432C98.217 13.8035 98.016 14.8358 97.2557 15.3483C96.9819 15.5329 96.6593 15.6317 96.3293 15.6321Z" fill="white"/>
<path d="M62.7842 11.2282C53.4227 7.35785 42.9083 7.35785 33.5469 11.2282L48.1705 46.5202L62.7842 11.2282Z" fill="#F2624C"/>
<path d="M33.5568 11.2279C24.2017 15.1165 16.767 22.5512 12.8784 31.9062L48.1704 46.5199L33.5568 11.2279Z" fill="#FAA41B"/>
<path d="M12.8783 31.9062C9.008 41.2671 9.008 51.781 12.8783 61.1419L48.1703 46.5199L12.8783 31.9062Z" fill="#FFD33F"/>
<path d="M0.0117188 34.8956V58.1447L18.2788 46.5202L0.0117188 34.8956Z" fill="#EE2849"/>
<path d="M83.4624 31.9062L48.1704 46.5199L83.4624 61.1336C87.3327 51.7721 87.3327 41.2577 83.4624 31.8962V31.9062Z" fill="#FFD33F"/>
<path d="M83.4626 31.9062L79.7229 33.4523C79.6946 41.7104 77.3743 49.7986 73.0205 56.8159L83.4626 61.1336C87.3329 51.7721 87.3329 41.2577 83.4626 31.8962V31.9062Z" fill="#EAB42D"/>
<path d="M83.4624 31.9062C79.5738 22.5512 72.1391 15.1165 62.7841 11.2279L48.1704 46.5199L83.4624 31.9062Z" fill="#FAA41B"/>
<path d="M83.4625 31.9064C82.222 28.9558 80.6145 26.1732 78.6782 23.6248C79.3707 26.7812 79.7209 30.0033 79.7228 33.2349V33.4524L83.4625 31.9064Z" fill="#F08015"/>
<path d="M33.5566 81.8121C42.9181 85.6825 53.4325 85.6825 62.7939 81.8121L48.1703 46.5201L33.5566 81.8121Z" fill="#FAA41B"/>
<path d="M35.1027 78.0724L33.5566 81.8122C42.9181 85.6825 53.4325 85.6825 62.7939 81.8122L58.4762 71.37C51.4561 75.7255 43.3642 78.0458 35.1027 78.0724Z" fill="#F08015"/>
<path d="M62.7841 81.8122C72.1391 77.9236 79.5738 70.4889 83.4624 61.1338L48.1704 46.5201L62.7841 81.8122Z" fill="#F2624C"/>
<path d="M73.0202 56.8159C69.3576 62.7259 64.3763 67.7072 58.4663 71.3698L62.784 81.8119C72.139 77.9233 79.5737 70.4886 83.4623 61.1336L73.0202 56.8159Z" fill="#D44A43"/>
<path d="M12.8784 61.1338C16.767 70.4889 24.2017 77.9236 33.5568 81.8122L48.1704 46.5201L12.8784 61.1338Z" fill="#F2624C"/>
<path d="M34.8851 78.072C31.6519 78.0706 28.4281 77.7204 25.27 77.0275C27.8201 78.9642 30.6042 80.5717 33.5566 81.8118L35.1027 78.072C35.0296 78.072 34.9582 78.072 34.8851 78.072Z" fill="#D44A43"/>
</svg>
