<svg width="116" height="116" viewBox="0 0 116 116" fill="none" xmlns="http://www.w3.org/2000/svg">
<g clip-path="url(#clip0)">
<path d="M112.258 33.6772H82.3227C81.289 33.6772 80.4518 34.5154 80.4518 35.5482V37.4191C80.4518 38.4536 79.6146 39.29 78.5809 39.29C77.5463 39.29 76.71 38.4536 76.71 37.4191V35.5482C76.71 34.5154 75.8719 33.6772 74.8391 33.6772H3.74182C1.67532 33.6772 0 35.3526 0 37.4191V78.5809C0 80.6474 1.67532 82.3227 3.74182 82.3227H74.8382C75.8719 82.3227 76.7091 81.4846 76.7091 80.4518V78.5809C76.7091 77.5463 77.5463 76.7091 78.5809 76.7091C79.6146 76.7091 80.4518 77.5463 80.4518 78.5809V80.4518C80.4518 81.4846 81.289 82.3227 82.3227 82.3227H112.258C114.325 82.3227 116 80.6474 116 78.5809V37.4191C116 35.3526 114.325 33.6772 112.258 33.6772ZM80.4518 71.0963C80.4518 72.1309 79.6146 72.9673 78.5809 72.9673C77.5463 72.9673 76.71 72.1309 76.71 71.0963V67.3545C76.71 66.3208 77.5463 65.4836 78.5809 65.4836C79.6146 65.4836 80.4518 66.3208 80.4518 67.3545V71.0963ZM80.4518 59.8709C80.4518 60.9055 79.6146 61.7418 78.5809 61.7418C77.5463 61.7418 76.71 60.9046 76.71 59.8709V56.1291C76.71 55.0945 77.5463 54.2581 78.5809 54.2581C79.6146 54.2581 80.4518 55.0954 80.4518 56.1291V59.8709ZM80.4518 48.6454C80.4518 49.6791 79.6146 50.5163 78.5809 50.5163C77.5463 50.5163 76.71 49.6791 76.71 48.6454V44.9036C76.71 43.869 77.5463 43.0327 78.5809 43.0327C79.6146 43.0327 80.4518 43.869 80.4518 44.9036V48.6454Z" fill="#FFE07D"/>
<path d="M30.8707 71.0964C30.0397 71.0964 29.3069 70.5486 29.075 69.7503L24.3225 53.4555L19.57 69.7503C19.3381 70.5486 18.6054 71.0964 17.7743 71.0964C16.9424 71.0964 16.2105 70.5486 15.9778 69.7503L9.42958 47.2985C9.14106 46.3064 9.70924 45.2665 10.7013 44.978C11.7005 44.6842 12.7351 45.2594 13.0218 46.2497L17.7743 62.5436L22.5268 46.2497C22.7587 45.4515 23.4915 44.9028 24.3225 44.9028C25.1535 44.9028 25.8863 45.4506 26.1182 46.2497L30.8707 62.5436L35.6232 46.2497C35.91 45.2594 36.941 44.6842 37.9437 44.978C38.9358 45.2665 39.504 46.3064 39.2155 47.2985L32.6673 69.7503C32.4345 70.5486 31.7017 71.0964 30.8707 71.0964Z" fill="#FF8086"/>
<path d="M43.345 71.0965C42.3105 71.0965 41.4741 70.2601 41.4741 69.2256V46.7737C41.4741 45.7401 42.3105 44.9028 43.345 44.9028C44.3787 44.9028 45.2159 45.7401 45.2159 46.7737V69.2256C45.2159 70.2601 44.3787 71.0965 43.345 71.0965Z" fill="#FF8086"/>
<path d="M65.4837 71.0963C64.8695 71.0963 64.2801 70.7936 63.927 70.2635L52.3873 52.9536V69.2262C52.3873 70.2599 51.5501 71.0971 50.5164 71.0971C49.4818 71.0971 48.6455 70.2599 48.6455 69.2262V46.7744C48.6455 45.9505 49.1845 45.223 49.9739 44.9841C50.7589 44.7407 51.6165 45.0513 52.0731 45.7363L63.6128 63.0462V46.7744C63.6128 45.7399 64.45 44.9035 65.4837 44.9035C66.5183 44.9035 67.3546 45.7399 67.3546 46.7744V69.2262C67.3546 70.0502 66.8156 70.7768 66.0262 71.0166C65.8474 71.0715 65.6651 71.0963 65.4837 71.0963Z" fill="#FF8086"/>
<path d="M57.9998 26.1936C56.9652 26.1936 56.1289 25.3564 56.1289 24.3227V1.87091C56.1289 0.837219 56.9652 0 57.9998 0C59.0344 0 59.8707 0.837219 59.8707 1.87091V24.3227C59.8707 25.3564 59.0344 26.1936 57.9998 26.1936Z" fill="#FFEAA8"/>
<path d="M70.2327 28.0629C69.9149 28.0629 69.5946 27.9824 69.299 27.8124C68.4033 27.2956 68.0971 26.1513 68.614 25.2565L75.0896 14.0328C75.6064 13.139 76.7463 12.8319 77.6455 13.347C78.5402 13.8647 78.8473 15.0081 78.3305 15.9037L71.8549 27.1274C71.508 27.7266 70.8796 28.0629 70.2327 28.0629Z" fill="#FFF5D7"/>
<path d="M45.7673 28.0647C45.1203 28.0647 44.492 27.7284 44.1451 27.1292L37.6694 15.9037C37.1526 15.0081 37.4597 13.8647 38.3544 13.347C39.2501 12.8319 40.3917 13.139 40.9103 14.0328L47.386 25.2583C47.9028 26.1539 47.5957 27.2974 46.701 27.8142C46.4054 27.9841 46.085 28.0647 45.7673 28.0647Z" fill="#FFF5D7"/>
<path d="M57.9998 116C56.9652 116 56.1289 115.163 56.1289 114.129V91.6773C56.1289 90.6427 56.9661 89.8064 57.9998 89.8064C59.0335 89.8064 59.8707 90.6436 59.8707 91.6773V114.129C59.8707 115.163 59.0344 116 57.9998 116Z" fill="#FFEAA8"/>
<path d="M39.2881 102.904C38.9704 102.904 38.6509 102.823 38.3544 102.653C37.4597 102.136 37.1526 100.992 37.6694 100.097L44.1451 88.8727C44.6619 87.978 45.8 87.6726 46.701 88.1877C47.5966 88.7045 47.9028 89.8489 47.386 90.7436L40.9104 101.968C40.5634 102.567 39.9351 102.904 39.2881 102.904Z" fill="#FFF5D7"/>
<path d="M76.7116 102.904C76.0647 102.904 75.4363 102.567 75.0894 101.968L68.6138 90.7418C68.0969 89.8471 68.404 88.7028 69.2988 88.1859C70.1962 87.6691 71.3361 87.9779 71.8547 88.8709L78.3303 100.097C78.8472 100.992 78.5401 102.136 77.6453 102.653C77.3488 102.823 77.0293 102.904 76.7116 102.904Z" fill="#FFF5D7"/>
<path d="M99.1611 63.6128H95.4193C94.3864 63.6128 93.5483 64.4509 93.5483 65.4837V69.2255C93.5483 70.2592 94.3864 71.0964 95.4193 71.0964H99.1611C100.195 71.0964 101.032 70.2592 101.032 69.2255V65.4837C101.032 64.4509 100.195 63.6128 99.1611 63.6128Z" fill="#E2A975"/>
<path d="M80.4517 78.5808V80.4517C80.4517 81.4845 81.2889 82.3226 82.3226 82.3226H112.258C114.325 82.3226 116 80.6473 116 78.5808H80.4517Z" fill="#FFD064"/>
<path d="M76.71 78.5809H22.4518C12.1184 78.5809 3.74182 70.2043 3.74182 59.8709V33.6772C1.67532 33.6772 0 35.3526 0 37.4191V78.5809C0 80.6474 1.67532 82.3227 3.74182 82.3227H74.8382C75.8719 82.3227 76.7091 81.4846 76.7091 80.4518V78.5809H76.71Z" fill="#FFD064"/>
<path d="M33.5993 58C32.7683 58 32.0364 58.5487 31.8037 59.347L30.8709 62.5445L29.9381 59.347C29.7053 58.5487 28.9743 58 28.1424 58C26.8954 58 25.9971 59.1974 26.3458 60.3948L29.0743 69.7503C29.3071 70.5486 30.0398 71.0973 30.8709 71.0973C31.7019 71.0973 32.4347 70.5486 32.6665 69.7503L35.395 60.3948C35.7446 59.1974 34.8472 58 33.5993 58Z" fill="#E5646E"/>
<path d="M15.9782 69.7503C16.21 70.5486 16.9428 71.0973 17.7738 71.0973C18.6057 71.0973 19.3385 70.5486 19.5704 69.7503L22.2989 60.3948C22.6485 59.1974 21.7502 58 20.5032 58C19.6713 58 18.9394 58.5487 18.7066 59.347L17.7747 62.5445L16.8419 59.347C16.6092 58.5487 15.8773 58 15.0462 58C13.7984 58 12.901 59.1974 13.2497 60.3948L15.9782 69.7503Z" fill="#E5646E"/>
<path d="M45.2164 69.2255V59.8709C45.2164 58.8372 44.3783 58 43.3455 58C42.3118 58 41.4746 58.8372 41.4746 59.8709V69.2255C41.4746 70.26 42.3109 71.0964 43.3455 71.0964C44.3792 71.0964 45.2164 70.26 45.2164 69.2255Z" fill="#E5646E"/>
<path d="M50.5164 71.0964C51.5501 71.0964 52.3873 70.26 52.3873 69.2255V59.8709C52.3873 58.8372 51.5492 58 50.5164 58C49.4827 58 48.6455 58.8372 48.6455 59.8709V69.2255C48.6455 70.26 49.4818 71.0964 50.5164 71.0964Z" fill="#E5646E"/>
<path d="M65.484 58C64.4512 58 63.6131 58.8372 63.6131 59.8709V63.0463L60.8041 58.8328C60.4572 58.3124 59.873 58 59.2473 58C57.7534 58 56.8622 59.6656 57.6906 60.909L63.9273 70.2636C64.2804 70.7937 64.8698 71.0964 65.484 71.0964C65.6646 71.0964 65.8478 71.0707 66.0265 71.0158C66.816 70.7769 67.3549 70.0494 67.3549 69.2255V59.8709C67.3549 58.8372 66.5177 58 65.484 58Z" fill="#E5646E"/>
<path d="M106.645 44.9036H87.9354C86.9017 44.9036 86.0645 45.7408 86.0645 46.7745V48.6454C86.0645 52.7784 89.4151 56.129 93.5481 56.129C94.5818 56.129 95.419 56.9662 95.419 57.9999V63.6127H99.1608V57.9999C99.1608 56.9662 99.9989 56.129 101.032 56.129C105.166 56.129 108.516 52.7784 108.516 48.6454V46.7745C108.516 45.7408 107.678 44.9036 106.645 44.9036ZM101.032 52.3872H93.5481C91.4851 52.3872 89.8063 50.7083 89.8063 48.6454H104.774C104.774 50.7083 103.095 52.3872 101.032 52.3872Z" fill="#FFF5D7"/>
<path d="M92.6128 44.9036V53.6342C92.6128 56.0458 94.7067 57.9999 97.2901 57.9999C99.8734 57.9999 101.967 56.0458 101.967 53.6342V44.9036H92.6128Z" fill="white"/>
<path d="M99.1611 71.0963H95.4193C94.3864 71.0963 93.5483 70.2591 93.5483 69.2254V67.3545H101.032V69.2254C101.032 70.2591 100.195 71.0963 99.1611 71.0963Z" fill="#D19A6E"/>
</g>
<defs>
<clipPath id="clip0">
<rect width="116" height="116" fill="white"/>
</clipPath>
</defs>
</svg>
