<svg width="111" height="111" viewBox="0 0 111 111" fill="none" xmlns="http://www.w3.org/2000/svg">
<path d="M91.8621 38.14V78.5995C91.8621 83.8108 87.6383 88.0345 82.429 88.0345H42.1034L22.9655 109.086V88.0345H9.43309C4.22374 88.0345 0 83.8108 0 78.6014V38.1419C0 32.9307 4.22374 28.7069 9.43309 28.7069H82.4271C87.6383 28.7069 91.8621 32.9307 91.8621 38.14Z" fill="#0391FD"/>
<path d="M101.567 1.91382H28.5708C23.3614 1.91382 19.1377 6.13756 19.1377 11.3488V28.7069H82.4287C87.6381 28.7069 91.8618 32.9307 91.8618 38.1419V61.2414H101.567C106.776 61.2414 111 57.0177 111 51.8064V11.3488C111 6.13756 106.776 1.91382 101.567 1.91382Z" fill="#0F71D3"/>
<path d="M47.8446 49.7873H21.0515C19.9932 49.7873 19.1377 48.9299 19.1377 47.8735C19.1377 46.8171 19.9932 45.9597 21.0515 45.9597H47.8446C48.9029 45.9597 49.7584 46.8171 49.7584 47.8735C49.7584 48.9299 48.9029 49.7873 47.8446 49.7873Z" fill="white"/>
<path d="M72.7239 61.27H21.0515C19.9932 61.27 19.1377 60.4126 19.1377 59.3562C19.1377 58.2998 19.9932 57.4424 21.0515 57.4424H72.7239C73.7822 57.4424 74.6377 58.2998 74.6377 59.3562C74.6377 60.4126 73.7822 61.27 72.7239 61.27Z" fill="white"/>
<path d="M72.7239 72.7528H21.0515C19.9932 72.7528 19.1377 71.8954 19.1377 70.839C19.1377 69.7826 19.9932 68.9252 21.0515 68.9252H72.7239C73.7822 68.9252 74.6377 69.7826 74.6377 70.839C74.6377 71.8954 73.7822 72.7528 72.7239 72.7528Z" fill="white"/>
</svg>
