<svg width="92" height="92" viewBox="0 0 92 92" fill="none" xmlns="http://www.w3.org/2000/svg">
<path d="M21.7422 0H27.1328V10.9609H21.7422V0Z" fill="#FFE375"/>
<path d="M0 21.7422H10.9609V27.1328H0V21.7422Z" fill="#FFE375"/>
<path d="M3.66357 7.47656L7.47475 3.66539L15.5595 11.7502L11.7483 15.5613L3.66357 7.47656Z" fill="#FFE375"/>
<path d="M64.8672 0H70.2578V10.9609H64.8672V0Z" fill="#FFB725"/>
<path d="M81.0391 21.7422H92V27.1328H81.0391V21.7422Z" fill="#FFB725"/>
<path d="M76.4287 11.7574L84.5135 3.67262L88.3247 7.48379L80.2399 15.5686L76.4287 11.7574Z" fill="#FFB725"/>
<path d="M21.7422 81.0391H27.1328V92H21.7422V81.0391Z" fill="#FFE375"/>
<path d="M0 64.8672H10.9609V70.2578H0V64.8672Z" fill="#FFE375"/>
<path d="M3.65625 84.5151L11.741 76.4303L15.5522 80.2415L7.46742 88.3263L3.65625 84.5151Z" fill="#FFE375"/>
<path d="M64.8672 81.0391H70.2578V92H64.8672V81.0391Z" fill="#FFB725"/>
<path d="M81.0391 64.8672H92V70.2578H81.0391V64.8672Z" fill="#FFB725"/>
<path d="M76.4209 80.25L80.2321 76.4388L88.3168 84.5236L84.5057 88.3348L76.4209 80.25Z" fill="#FFB725"/>
<path d="M62.1719 40.6094L46 44.2031L29.8281 40.6094L34.1406 30.0977L46 21.7422L57.6797 30.457L62.1719 40.6094Z" fill="#A8EBFA"/>
<path d="M62.1719 40.6094L46 44.2031V21.7422L57.6797 30.457L62.1719 40.6094Z" fill="#76E2F8"/>
<path d="M87.3157 40.6094L87.4232 40.4865L68.6789 21.7422H46L62.1719 40.6094H87.3157Z" fill="#4BB9EC"/>
<path d="M45.9998 21.7422H23.3209L4.57666 40.4865L4.68411 40.6094H29.828L45.9998 21.7422Z" fill="#76E2F8"/>
<path d="M62.1719 40.6094L60.72 53.2432L46 87.8277L32.3887 55.9565L29.8281 40.6094H62.1719Z" fill="#76E2F8"/>
<path d="M62.1719 40.6094L60.72 53.2432L46 87.8277V40.6094H62.1719Z" fill="#4BB9EC"/>
<path d="M87.3157 40.6094H62.1719L46 87.8275L87.3157 40.6094Z" fill="#0095FF"/>
<path d="M4.68408 40.6094L45.9998 87.8275L29.8279 40.6094H4.68408Z" fill="#4BB9EC"/>
</svg>
