<svg width="174" height="130" viewBox="0 0 174 130" fill="none" xmlns="http://www.w3.org/2000/svg">
<path d="M67.7584 48.6293C66.2105 44.7555 62.4199 42.0118 58.0001 42.0118C53.5804 42.0118 49.7897 44.7557 48.2419 48.6295C21.5166 115.51 22.9901 111.494 22.9901 112.499C22.9901 114.432 24.5577 116 26.4912 116H89.5093C91.4428 116 93.0104 114.432 93.0104 112.499C93.0102 111.494 94.481 115.504 67.7584 48.6293Z" fill="#E9E3D5"/>
<path d="M63.1438 43.3619C60.9731 45.2635 60.1242 48.3952 61.2559 51.2273C67.9381 67.9494 72.8575 80.24 76.478 89.285C79.042 95.6904 80.9888 100.555 82.4438 104.201C83.3616 106.5 81.6674 108.998 79.1915 108.998H24.1214C22.6336 112.813 23.0464 111.997 22.982 112.635C22.7951 114.489 24.1121 116 25.9756 116H89.9958C91.8638 116 93.1933 114.484 93.0163 112.625C92.8741 111.13 95.4068 117.821 67.758 48.6293C66.8642 46.3929 65.2221 44.5346 63.1438 43.3619Z" fill="#B6B0A2"/>
<path d="M58.0002 103.747C86.6491 103.747 109.874 80.5221 109.874 51.8733C109.874 23.2245 86.6491 0 58.0002 0C29.3514 0 6.12695 23.2245 6.12695 51.8733C6.12695 80.5221 29.3514 103.747 58.0002 103.747Z" fill="#4D5967"/>
<path d="M89.4068 10.5891C87.0007 13.3397 87.107 17.5225 89.7288 20.1443C107.224 37.6397 107.224 66.1064 89.7288 83.602C72.2334 101.097 43.7667 101.097 26.2711 83.602C23.6493 80.98 19.4661 80.8737 16.7158 83.28C26.192 95.7172 41.1574 103.747 57.9998 103.747C86.6486 103.747 109.873 80.5221 109.873 51.8733C109.873 35.0306 101.844 20.0655 89.4068 10.5891Z" fill="#35404A"/>
<path d="M97.6197 51.8732C97.6197 37.2366 89.641 24.4293 77.8054 17.5694L62.9042 31.2506L58 51.8732L78.7724 56.5415L97.6197 51.8732Z" fill="#4FE267"/>
<path d="M68.005 13.5383L61.0319 25.6159C59.6845 27.95 56.3155 27.95 54.9681 25.6159L47.9952 13.5383C44.5216 14.4459 41.2305 15.8101 38.1948 17.5693L41.2822 35.4204L58 51.8734L77.8054 17.5696C74.7695 15.8098 71.4784 14.4459 68.005 13.5383Z" fill="#FFCF5D"/>
<path d="M18.3804 51.8732L36.2938 58.8758L58 51.8732L38.1946 17.5694C26.3588 24.4293 18.3804 37.2366 18.3804 51.8732Z" fill="#FF983B"/>
<path d="M18.3804 51.8733C18.3804 66.5099 26.359 79.3173 38.1946 86.1771L54.3984 73.2116L57.9998 51.8733H18.3804Z" fill="#FF5368"/>
<path d="M38.1943 86.1771C44.0245 89.5563 50.7901 91.493 57.9998 91.493C65.2094 91.493 71.975 89.5563 77.8052 86.1771L73.0727 65.2262L57.9998 51.8733L38.1943 86.1771Z" fill="#517AAC"/>
<path d="M77.8054 86.1771C89.641 79.3173 97.6197 66.5099 97.6197 51.8733H58L77.8054 86.1771Z" fill="#00F4F5"/>
<path d="M38.1945 86.1771L44.1635 81.4009C43.3282 81.0083 42.5069 80.5835 41.7058 80.119C38.5409 78.2845 34.5383 79.2066 32.4731 82.1427C34.2542 83.647 36.1663 85.0014 38.1945 86.1771Z" fill="#D9435B"/>
<path d="M77.8052 86.1772L76.1712 78.9435C75.5611 79.3547 74.9355 79.7476 74.2939 80.1193C69.3594 82.9795 63.7248 84.4911 57.9998 84.4911C52.2747 84.4911 46.6401 82.9795 41.7056 80.1196C41.7022 80.1175 41.6986 80.1159 41.6952 80.1139L38.1943 86.1774C44.0245 89.5563 50.7901 91.493 57.9998 91.493C65.2094 91.493 71.975 89.5563 77.8052 86.1772Z" fill="#3F5F94"/>
<path d="M97.6198 51.8732C97.6198 37.2366 89.6412 24.4293 77.8055 17.5694L72.6465 22.3059C73.1137 22.8148 73.6651 23.2625 74.2943 23.6272C84.3632 29.4633 90.6179 40.2864 90.6179 51.8735C90.6179 52.4582 90.5977 53.0405 90.566 53.6207L97.6198 51.8732Z" fill="#00BD4F"/>
<path d="M71.4594 14.6135C69.941 17.8645 71.1307 21.7937 74.2944 23.6273C74.2978 23.6294 74.3012 23.6316 74.3046 23.6334L77.8056 17.5695C75.7954 16.4043 73.6718 15.4153 71.4594 14.6135Z" fill="#FF983B"/>
<path d="M97.6197 51.8733H90.6178C90.6178 63.4561 84.3672 74.2758 74.3042 80.1132L77.8053 86.1771C89.6413 79.3173 97.6197 66.5097 97.6197 51.8733Z" fill="#00D3D8"/>
<g clip-path="url(#clip0)">
<path d="M133.063 38.4197L102.413 30.2072C99.1923 29.3443 95.8824 31.2554 95.0195 34.4756L86.8068 65.1255C85.9439 68.3459 87.855 71.6558 91.0752 72.5187L121.725 80.7312C124.945 81.5941 128.255 79.683 129.118 76.4629L137.331 45.8129C138.194 42.5927 136.283 39.2828 133.063 38.4197Z" fill="#FF5368"/>
<path d="M135.769 39.9828C133.756 40.524 132.079 42.0927 131.501 44.2506L124.98 68.584C124.046 72.0726 120.46 74.1429 116.971 73.2082L92.6377 66.6881C90.4791 66.1094 88.2826 66.7783 86.8076 68.2504C87.349 70.2629 88.9174 71.9408 91.0754 72.5187L121.725 80.7312C124.946 81.5941 128.256 79.683 129.119 76.4629L137.331 45.8129C137.91 43.6551 137.241 41.4578 135.769 39.9828Z" fill="#C5324F"/>
<path d="M161.193 114.187L152.981 83.537C152.118 80.3167 148.808 78.4057 145.587 79.2686L114.937 87.4811C111.717 88.344 109.806 91.654 110.669 94.8743L118.882 125.524C119.745 128.745 123.055 130.656 126.275 129.793L156.925 121.58C160.145 120.717 162.056 117.407 161.193 114.187Z" fill="#FF5368"/>
<path d="M152.981 83.5369C152.402 81.3791 150.725 79.8107 148.712 79.2693C147.24 80.7445 146.572 82.9416 147.15 85.0994L153.67 109.433C154.605 112.921 152.534 116.507 149.046 117.442L124.712 123.962C122.555 124.54 120.986 126.218 120.445 128.23C121.92 129.702 124.117 130.371 126.275 129.793L156.925 121.58C160.145 120.718 162.056 117.408 161.193 114.187L152.981 83.5369Z" fill="#C5324F"/>
<path d="M142.331 97.9675C144.831 97.9675 146.858 95.9406 146.858 93.4402C146.858 90.9398 144.831 88.9128 142.331 88.9128C139.83 88.9128 137.803 90.9398 137.803 93.4402C137.803 95.9406 139.83 97.9675 142.331 97.9675Z" fill="#FFF9EB"/>
<path d="M129.524 120.146C132.025 120.146 134.052 118.119 134.052 115.619C134.052 113.118 132.025 111.091 129.524 111.091C127.024 111.091 124.997 113.118 124.997 115.619C124.997 118.119 127.024 120.146 129.524 120.146Z" fill="#FFF9EB"/>
<path d="M135.931 109.059C138.432 109.059 140.458 107.032 140.458 104.531C140.458 102.031 138.432 100.004 135.931 100.004C133.431 100.004 131.404 102.031 131.404 104.531C131.404 107.032 133.431 109.059 135.931 109.059Z" fill="#FFF9EB"/>
<path d="M105.665 48.9084C108.165 48.9084 110.192 46.8815 110.192 44.3811C110.192 41.8807 108.165 39.8538 105.665 39.8538C103.164 39.8538 101.137 41.8807 101.137 44.3811C101.137 46.8815 103.164 48.9084 105.665 48.9084Z" fill="#FFF9EB"/>
<path d="M123.159 53.5938C125.659 53.5938 127.686 51.5669 127.686 49.0665C127.686 46.5661 125.659 44.5391 123.159 44.5391C120.658 44.5391 118.631 46.5661 118.631 49.0665C118.631 51.5669 120.658 53.5938 123.159 53.5938Z" fill="#FFF9EB"/>
<path d="M100.979 66.3995C103.479 66.3995 105.506 64.3725 105.506 61.8721C105.506 59.3717 103.479 57.3448 100.979 57.3448C98.4781 57.3448 96.4512 59.3717 96.4512 61.8721C96.4512 64.3725 98.4781 66.3995 100.979 66.3995Z" fill="#FFF9EB"/>
<path d="M118.47 71.0883C120.97 71.0883 122.997 69.0614 122.997 66.561C122.997 64.0606 120.97 62.0336 118.47 62.0336C115.969 62.0336 113.942 64.0606 113.942 66.561C113.942 69.0614 115.969 71.0883 118.47 71.0883Z" fill="#FFF9EB"/>
</g>
<defs>
<clipPath id="clip0">
<rect width="100" height="100" fill="white" transform="translate(74 30)"/>
</clipPath>
</defs>
</svg>
