<svg width="189" height="147" viewBox="0 0 189 147" fill="none" xmlns="http://www.w3.org/2000/svg">
<g clip-path="url(#clip0)">
<path d="M36.6141 99.7356C46.3801 94.7406 50.2457 82.7807 45.2506 73.0147C40.2556 63.2487 28.2958 59.3832 18.5298 64.3782C8.76376 69.3733 4.8982 81.3331 9.89326 91.0991C14.8883 100.865 26.8481 104.731 36.6141 99.7356ZM17.7868 86.5785L31.4706 71.2883C32.1155 70.5978 33.0514 70.7232 33.4069 72.0506L33.4076 72.0484L37.4987 87.2058C37.7794 88.2852 37.324 88.8155 36.2845 88.771L30.1988 87.7743L29.1175 90.9183C29.0023 91.2745 28.9052 91.5752 28.4485 91.8087L26.4618 87.1505L30.868 75.5609C31.064 75.0648 30.5375 75.1111 30.2273 75.6637L23.3645 87.2143L18.3046 88.085C17.2036 88.2689 16.8521 87.6327 17.7868 86.5785V86.5785Z" fill="white" fill-opacity="0.45"/>
</g>
<g clip-path="url(#clip1)">
<path d="M97.5481 33.9539C97.9434 34.5544 98.747 34.7146 99.3408 34.3241C99.4571 34.2475 99.5747 34.1731 99.6935 34.1005C100.304 33.7285 100.497 32.9322 100.125 32.3218C99.7535 31.7113 98.9571 31.518 98.3466 31.89C98.2025 31.9777 98.0597 32.0682 97.9183 32.161C97.321 32.5541 97.1554 33.3566 97.5481 33.9539V33.9539Z" fill="white" fill-opacity="0.45"/>
<path d="M103.946 29.8802C103.239 29.9814 102.747 30.6371 102.848 31.3446C102.95 32.0522 103.605 32.5435 104.313 32.4426C114.051 31.0498 121.43 41.398 116.712 50.192C113.55 56.0876 106.18 58.3109 100.284 55.1482C93.675 51.6024 91.7863 42.8709 96.5241 36.8999C96.9684 36.34 96.8747 35.526 96.3146 35.0816C95.7544 34.6373 94.9406 34.731 94.4964 35.2911C88.7741 42.5028 91.0077 53.1088 99.0611 57.4291C106.214 61.2666 115.156 58.569 118.994 51.4156C124.717 40.7471 115.767 28.1895 103.946 29.8802V29.8802Z" fill="white" fill-opacity="0.45"/>
<path d="M145.074 100.322C144.699 99.7534 143.914 99.5363 143.259 99.9691C142.438 100.511 142.502 101.73 143.358 102.19C144.521 102.813 145.827 101.462 145.074 100.322Z" fill="white" fill-opacity="0.45"/>
<path d="M143.522 76.8746C138.964 74.4292 133.68 74.6382 129.453 76.9622L118.279 60.3558C117.88 59.7624 117.075 59.6054 116.482 60.0044C115.889 60.4035 115.732 61.2077 116.131 61.8007L127.302 78.4033C125.819 79.6002 124.546 81.1058 123.59 82.8881C117.448 94.3374 128.155 107.518 140.56 104.016C141.248 103.822 141.648 103.107 141.454 102.419C141.26 101.732 140.545 101.331 139.857 101.525C129.633 104.411 120.809 93.5483 125.871 84.1118C129.034 78.2162 136.403 75.9928 142.299 79.1556C148.194 82.3183 150.418 89.6879 147.255 95.5834C146.917 96.2133 147.154 96.9979 147.784 97.3358C148.413 97.6736 149.198 97.4369 149.536 96.8071C153.373 89.6537 150.676 80.7121 143.522 76.8746V76.8746Z" fill="white" fill-opacity="0.45"/>
<path d="M173.179 32.2004C163.949 27.2489 152.602 33.3008 151.572 43.7046L125.9 43.3987C125.185 43.3902 124.599 43.9628 124.59 44.6775C124.582 45.3875 125.15 45.9783 125.869 45.987L151.545 46.2928C151.922 51.1309 154.676 55.6868 159.261 58.1463C166.414 61.9838 175.356 59.2862 179.193 52.1328C183.031 44.9794 180.333 36.038 173.179 32.2004V32.2004ZM160.484 55.8655C154.589 52.7027 152.365 45.3332 155.528 39.4376C158.691 33.542 166.06 31.3187 171.956 34.4814C177.851 37.6442 180.075 45.0137 176.912 50.9093C173.749 56.8049 166.38 59.0282 160.484 55.8655Z" fill="white" fill-opacity="0.45"/>
<path d="M172.043 40.9L172.556 39.9441C172.894 39.3143 172.657 38.5297 172.027 38.1918C171.398 37.8539 170.613 38.0906 170.275 38.7204L169.89 39.4387L168.825 38.8675L169.211 38.1493C169.548 37.5195 169.312 36.7349 168.682 36.397C168.052 36.0591 167.267 36.2958 166.93 36.9257L166.544 37.6439L165.454 37.0592C164.825 36.7213 164.04 36.958 163.702 37.5879C163.364 38.2177 163.601 39.0023 164.231 39.3402L164.577 39.526L160.683 46.7859L160.336 46.6001C159.706 46.2622 158.922 46.4989 158.584 47.1287C158.246 47.7585 158.483 48.5431 159.112 48.881L160.202 49.4657L159.817 50.1839C159.479 50.8137 159.716 51.5983 160.346 51.9362C160.976 52.2741 161.76 52.0374 162.098 51.4076L162.483 50.6893L163.548 51.2605L163.163 51.9787C162.825 52.6085 163.061 53.3931 163.691 53.731C164.321 54.0689 165.106 53.8322 165.444 53.2023L165.956 52.2465C168.758 52.5869 171.018 49.9773 170.257 47.2475C172.952 46.372 173.877 43.0462 172.043 40.9V40.9ZM165.788 49.5247L162.964 48.0095L164.266 45.5821L167.09 47.0974C167.76 47.4563 168.012 48.2929 167.653 48.9622C167.294 49.6313 166.457 49.8837 165.788 49.5247ZM169.683 42.265C170.352 42.624 170.605 43.4606 170.245 44.1299C169.886 44.7992 169.05 45.0516 168.381 44.6925L165.556 43.1772L166.858 40.7497L169.683 42.265Z" fill="white" fill-opacity="0.45"/>
<path d="M110.15 36.7579C109.521 36.42 108.736 36.6567 108.398 37.2865L108.006 38.0179C106.136 37.207 103.919 37.9534 102.937 39.7846C101.903 41.7105 102.63 44.1179 104.556 45.1511L106.188 46.0267C106.856 46.3851 107.108 47.2203 106.749 47.8885C106.391 48.5567 105.556 48.8086 104.888 48.4502L102.186 47.001C101.556 46.6631 100.772 46.8998 100.434 47.5297C100.096 48.1595 100.333 48.9441 100.963 49.282L101.739 49.6987L101.352 50.4208C101.014 51.0506 101.251 51.8352 101.881 52.1731C102.511 52.511 103.295 52.2742 103.633 51.6444L104.03 50.9042C105.885 51.6688 108.062 50.9177 109.031 49.112C110.064 47.1861 109.337 44.7787 107.412 43.7455L105.779 42.87C105.111 42.5115 104.859 41.6763 105.22 41.0041C105.578 40.336 106.413 40.084 107.082 40.4424L109.783 41.8916C110.413 42.2295 111.197 41.9928 111.535 41.363C111.873 40.7331 111.636 39.9485 111.007 39.6106L110.294 39.2283L110.679 38.51C111.017 37.8804 110.78 37.0958 110.15 36.7579Z" fill="white" fill-opacity="0.45"/>
<path d="M130.412 94.8098L136.685 98.1748C137.315 98.5127 138.1 98.276 138.437 97.6462C138.775 97.0163 138.539 96.2317 137.909 95.8938L133.225 93.3815L136.316 90.4886L138.872 91.2388C139.558 91.44 140.277 91.0472 140.478 90.3613C140.68 89.6755 140.287 88.9558 139.601 88.7551L138.509 88.4348L141.129 85.9819C141.651 85.4934 141.678 84.6744 141.19 84.1527C140.701 83.6308 139.882 83.6038 139.36 84.0924L135.626 87.5888L133.256 86.8935C132.57 86.6923 131.851 87.0851 131.65 87.771C131.447 88.4613 131.846 89.1778 132.527 89.3772L133.432 89.6426L130.14 92.7247C129.494 93.329 129.632 94.3914 130.412 94.8098V94.8098Z" fill="white" fill-opacity="0.45"/>
</g>
<path d="M142 118.073V133.301C142 134.479 141.045 135.435 139.868 135.435H102.714V118.073C102.714 112.93 106.884 108.759 112.028 108.759H132.686C137.83 108.759 142 112.93 142 118.073V118.073Z" fill="#EB5777"/>
<path d="M117.428 118.455V135.435H102.714V118.073C102.714 112.929 106.884 108.759 112.028 108.759H113.811C116.065 111.361 117.428 114.752 117.428 118.455V118.455Z" fill="#CE3F63"/>
<path d="M122.579 114.004C120.826 114.004 119.404 112.582 119.404 110.829V101.922H125.754V110.829C125.754 112.582 124.333 114.004 122.579 114.004Z" fill="#E39F6E"/>
<path d="M105.782 89.5019H139.376L140.263 85.1802C142.558 73.9859 134.006 63.5042 122.579 63.5042C111.153 63.5042 102.602 73.9859 104.897 85.1802L105.782 89.5019Z" fill="#BA6F3C"/>
<path d="M141.25 91.1929C141.25 93.5544 139.337 95.4678 136.975 95.4678C134.615 95.4678 132.701 93.5544 132.701 91.1929C132.701 88.8323 134.615 86.9189 136.975 86.9189C139.337 86.9189 141.25 88.8323 141.25 91.1929Z" fill="#E39F6E"/>
<path d="M112.457 91.1938C112.457 93.5544 110.545 95.4686 108.183 95.4686C105.822 95.4686 103.908 93.5544 103.908 91.1938C103.908 90.8331 103.951 90.4813 104.039 90.1465C104.505 88.2937 106.183 86.9189 108.183 86.9189C110.208 86.9189 111.904 88.3285 112.344 90.2193C112.418 90.5314 112.457 90.8589 112.457 91.1938Z" fill="#E39F6E"/>
<path d="M112.345 90.2193C111.138 90.9123 109.741 91.307 108.252 91.307C106.714 91.307 105.274 90.8832 104.039 90.1465C104.505 88.2937 106.183 86.9189 108.183 86.9189C110.209 86.9189 111.905 88.3285 112.345 90.2193Z" fill="#D88852"/>
<path d="M109.125 79.2369L110.591 90.9689L111.146 95.4185C111.867 101.184 116.769 105.511 122.578 105.511C128.39 105.511 133.292 101.184 134.011 95.4185L136.032 79.2369H109.125Z" fill="#F8C298"/>
<path d="M116.505 83.0548C116.505 86.7943 114.004 89.9588 110.591 90.9689L109.02 78.3926H115.061C115.972 79.7213 116.505 81.3258 116.505 83.0548Z" fill="#E39F6E"/>
<path d="M116.322 92.5485C115.458 92.5485 114.747 91.8603 114.724 90.9925L114.705 90.3148C114.681 89.4317 115.377 88.6966 116.26 88.6723C117.144 88.6448 117.879 89.3443 117.903 90.2275L117.921 90.9052C117.946 91.7883 117.249 92.5234 116.366 92.5477C116.351 92.5477 116.336 92.5485 116.322 92.5485Z" fill="#AA5B26"/>
<path d="M128.855 92.5485C127.992 92.5485 127.281 91.8603 127.257 90.9925L127.238 90.3148C127.214 89.4317 127.91 88.6966 128.794 88.6723C129.678 88.6448 130.412 89.3443 130.436 90.2275L130.455 90.9052C130.479 91.7883 129.783 92.5234 128.9 92.5477C128.884 92.5477 128.87 92.5485 128.855 92.5485V92.5485Z" fill="#AA5B26"/>
<path d="M122.579 98.5531C120.566 98.5531 118.658 97.5778 117.475 95.9442C116.956 95.2285 117.116 94.2289 117.832 93.7105C118.548 93.1921 119.547 93.3523 120.066 94.068C120.649 94.8735 121.589 95.3538 122.579 95.3538C123.57 95.3538 124.511 94.8735 125.094 94.068C125.612 93.3523 126.612 93.1921 127.327 93.7105C128.043 94.2289 128.203 95.2285 127.685 95.9442C126.502 97.5778 124.593 98.5531 122.579 98.5531Z" fill="#E39F6E"/>
<path d="M110.301 137.033C109.417 137.033 108.701 136.318 108.701 135.435V120.894C108.701 120.011 109.417 119.294 110.301 119.294C111.184 119.294 111.9 120.011 111.9 120.894V135.435C111.9 136.318 111.184 137.033 110.301 137.033Z" fill="black"/>
<path d="M136.011 120.893V135.435H132.812V120.893C132.812 120.01 133.529 119.293 134.412 119.293C135.296 119.293 136.011 120.01 136.011 120.893V120.893Z" fill="#CE3F63"/>
<path d="M106.611 79.5692C106.611 79.5692 109.48 82.4143 117.204 82.6205C117.692 82.6335 118.093 82.2404 118.093 81.752V80.606C118.093 80.606 120.901 82.4483 126.853 82.6197C127.341 82.6335 127.741 82.2396 127.741 81.7512V81.1009C127.741 81.1009 130.056 82.5138 136.992 82.6254C137.477 82.6327 137.873 82.2404 137.873 81.7568V77.5394C137.873 76.987 137.425 76.5398 136.873 76.5398H109.641C107.968 76.5398 106.611 77.896 106.611 79.5692Z" fill="#BA6F3C"/>
<path d="M117.218 84.2203C117.196 84.2203 117.175 84.2195 117.153 84.2195C112.122 84.0844 108.954 82.8826 107.183 81.8984C106.411 81.469 106.133 80.4953 106.562 79.723C106.991 78.9507 107.965 78.6733 108.737 79.1019C109.865 79.7287 112.331 80.7735 116.493 80.9919V80.6061C116.493 80.0182 116.816 79.4771 117.333 79.1981C117.85 78.9183 118.479 78.9458 118.97 79.2685C118.983 79.2766 121.32 80.7177 126.146 80.9886C126.18 80.4411 126.472 79.9333 126.959 79.6729C127.475 79.3971 128.073 79.4076 128.561 79.7262C128.752 79.8241 130.885 80.8536 136.4 81.0121C137.283 81.0372 137.979 81.7731 137.954 82.657C137.928 83.5393 137.19 84.234 136.309 84.2097C132.695 84.1062 130.315 83.6501 128.85 83.228C128.772 83.3307 128.687 83.4285 128.593 83.5199C128.117 83.9825 127.462 84.2356 126.798 84.2178C123.432 84.1208 120.973 83.507 119.388 82.9417C119.272 83.1519 119.124 83.346 118.947 83.5183C118.486 83.9663 117.86 84.2203 117.218 84.2203Z" fill="#AA5B26"/>
<path d="M75.2858 118.073V135.435H38.1326C36.9551 135.435 36 134.479 36 133.301V118.073C36 112.93 40.1697 108.759 45.314 108.759H65.9718C71.1161 108.759 75.2858 112.93 75.2858 118.073V118.073Z" fill="#4FCEB7"/>
<path d="M75.286 118.073V135.435H60.5723V118.455C60.5723 114.752 61.935 111.361 64.1897 108.759H65.9721C71.1163 108.759 75.286 112.929 75.286 118.073V118.073Z" fill="#3DB4A0"/>
<path d="M55.8669 114.004C54.1128 114.004 52.6919 112.582 52.6919 110.829V101.922H59.0419V110.829C59.0419 112.582 57.6202 114.004 55.8669 114.004Z" fill="#E39F6E"/>
<path d="M39.0692 89.5019H72.664L73.5504 85.1802C75.8447 73.9859 67.2933 63.5042 55.867 63.5042C44.4406 63.5042 35.8893 73.9859 38.1836 85.1802L39.0692 89.5019Z" fill="#BA6F3C"/>
<path d="M74.5375 91.1938C74.5375 93.5544 72.6233 95.4686 70.2627 95.4686C67.9028 95.4686 65.9878 93.5544 65.9878 91.1938C65.9878 90.8331 66.0315 90.4813 66.1188 90.1465C66.5846 88.2937 68.2627 86.9189 70.2627 86.9189C72.2885 86.9189 73.9868 88.3285 74.4243 90.2209C74.4987 90.5338 74.5375 90.8589 74.5375 91.1938Z" fill="#E39F6E"/>
<path d="M74.4247 90.2209C73.218 90.9115 71.8214 91.307 70.335 91.307C68.7968 91.307 67.354 90.8832 66.1191 90.1465C66.585 88.2937 68.263 86.9189 70.263 86.9189C72.2896 86.9189 73.9871 88.3285 74.4247 90.2209Z" fill="#D88852"/>
<path d="M45.7452 91.1929C45.7452 93.5544 43.8318 95.4678 41.4712 95.4678C39.1097 95.4678 37.1963 93.5544 37.1963 91.1929C37.1963 88.8323 39.1097 86.9189 41.4712 86.9189C43.8318 86.9189 45.7452 88.8323 45.7452 91.1929Z" fill="#E39F6E"/>
<path d="M42.4131 79.2369L44.4341 95.4185C45.1554 101.184 50.0555 105.511 55.8669 105.511C61.6783 105.511 66.5783 101.184 67.2997 95.4185L67.8609 90.9293L69.3207 79.2369H42.4131Z" fill="#F8C298"/>
<path d="M63.0222 79.2369C62.423 80.3804 62.0825 81.6776 62.0825 83.0548C62.0825 86.7442 64.5151 89.8755 67.8608 90.9293L69.3205 79.2377H63.0222V79.2369Z" fill="#E39F6E"/>
<path d="M49.6084 92.5485C48.7455 92.5485 48.0347 91.8603 48.0104 90.9925L47.9918 90.3148C47.9676 89.4317 48.6639 88.6966 49.547 88.6723C50.4341 88.6448 51.166 89.3443 51.1903 90.2275L51.2089 90.9052C51.2332 91.7883 50.5369 92.5234 49.6537 92.5477C49.6384 92.5477 49.6238 92.5485 49.6084 92.5485Z" fill="#AA5B26"/>
<path d="M62.1417 92.5485C61.2788 92.5485 60.5671 91.8603 60.5436 90.9925L60.525 90.3148C60.5008 89.4317 61.1971 88.6966 62.0802 88.6723C62.9673 88.6448 63.6984 89.3443 63.7227 90.2275L63.7413 90.9052C63.7656 91.7883 63.0701 92.5234 62.1861 92.5477C62.1716 92.5477 62.1562 92.5485 62.1417 92.5485Z" fill="#AA5B26"/>
<path d="M55.8667 98.5531C53.853 98.5531 51.9445 97.5778 50.7613 95.9442C50.2429 95.2285 50.403 94.2289 51.1188 93.7105C51.8345 93.1921 52.834 93.3523 53.3524 94.068C53.9355 94.8735 54.876 95.3538 55.8667 95.3538C56.8574 95.3538 57.7971 94.8735 58.3802 94.068C58.8986 93.3523 59.8982 93.1921 60.6139 93.7105C61.3296 94.2289 61.4897 95.2285 60.9713 95.9442C59.7882 97.5778 57.8804 98.5531 55.8667 98.5531Z" fill="#E39F6E"/>
<path d="M45.1877 120.893V135.435H41.9893V120.893C41.9893 120.01 42.7034 119.293 43.5881 119.293C44.4712 119.293 45.1877 120.01 45.1877 120.893V120.893Z" fill="#3DB4A0"/>
<path d="M67.6994 137.033C66.8163 137.033 66.1006 136.318 66.1006 135.435V120.894C66.1006 120.011 66.8163 119.294 67.6994 119.294C68.5833 119.294 69.2991 120.011 69.2991 120.894V135.435C69.2991 136.318 68.5833 137.033 67.6994 137.033Z" fill="black"/>
<path d="M39.8979 79.5692C39.8979 79.5692 42.7665 82.4143 50.4905 82.6205C50.979 82.6335 51.3801 82.2404 51.3801 81.752V80.606C51.3801 80.606 54.1888 82.4483 60.1393 82.6197C60.6286 82.6335 61.0289 82.2396 61.0289 81.7512V81.1009C61.0289 81.1009 63.3434 82.5138 70.2798 82.6254C70.7634 82.6327 71.1597 82.2404 71.1597 81.7568V77.5394C71.1597 76.987 70.7124 76.5398 70.1609 76.5398H42.9282C41.255 76.5398 39.8979 77.896 39.8979 79.5692Z" fill="#BA6F3C"/>
<path d="M70.2752 84.2242C70.2663 84.2242 70.2582 84.2242 70.2493 84.2242C66.2656 84.1603 63.6882 83.675 62.1371 83.2286C62.0602 83.3313 61.9745 83.4284 61.8807 83.5198C61.4044 83.9824 60.7493 84.2363 60.0854 84.2177C56.7203 84.1206 54.2602 83.5068 52.6759 82.9415C52.5594 83.1518 52.4114 83.3459 52.2335 83.519C51.758 83.9815 51.1029 84.2387 50.4406 84.2193C45.9611 84.0988 42.9883 83.1162 41.2827 82.3132C40.4829 81.9363 40.14 80.9836 40.5169 80.1838C40.8929 79.3848 41.8464 79.0427 42.6454 79.4188C43.9814 80.0479 46.2781 80.8089 49.7807 80.9917V80.606C49.7807 80.018 50.1034 79.477 50.6209 79.198C51.1377 78.9182 51.7669 78.9457 52.2578 79.2683C52.2715 79.2764 54.6087 80.7176 59.4335 80.9885C59.4683 80.441 59.7602 79.9331 60.2471 79.6727C60.7631 79.3969 61.3607 79.4074 61.8484 79.7261C62.0465 79.828 64.3295 80.9286 70.3011 81.0257C71.1842 81.0394 71.8886 81.7673 71.8748 82.6512C71.8603 83.5254 71.147 84.2242 70.2752 84.2242Z" fill="#AA5B26"/>
<path d="M114.869 118.455V139.184C114.869 140.361 113.914 141.316 112.736 141.316H65.2644C64.0861 141.316 63.1318 140.361 63.1318 139.184V118.455C63.1318 111.679 68.623 106.187 75.3976 106.187H102.603C109.377 106.187 114.869 111.679 114.869 118.455V118.455Z" fill="#A9D2F7"/>
<path d="M73.123 112.825V116.114C73.123 116.878 73.7417 117.496 74.5051 117.496C75.4255 117.496 76.0894 118.38 75.8322 119.264L74.7203 123.092C74.5998 123.508 74.6814 123.956 74.9402 124.303L80.167 131.307V106.187L73.6091 111.774C73.301 112.036 73.123 112.421 73.123 112.825V112.825Z" fill="#5F9EEB"/>
<path d="M105.465 112.825V116.114C105.465 116.878 104.846 117.496 104.083 117.496C103.162 117.496 102.498 118.38 102.756 119.264L103.867 123.092C103.988 123.508 103.906 123.956 103.648 124.303L98.4209 131.307V106.187L104.979 111.774C105.287 112.036 105.465 112.421 105.465 112.825V112.825Z" fill="#5F9EEB"/>
<path d="M80.1665 106.187H98.4216V141.317H80.1665V106.187Z" fill="#627687"/>
<path d="M114.868 118.452V139.184C114.868 140.362 113.914 141.316 112.736 141.316H110.689V118.455C110.689 111.681 105.195 106.187 98.4214 106.187H102.603C109.377 106.187 114.868 111.679 114.868 118.452V118.452Z" fill="#7FB7EA"/>
<path d="M89.2942 113.095C86.9845 113.095 85.1123 111.222 85.1123 108.914V97.1839H93.4752V108.914C93.4752 111.222 91.6031 113.095 89.2942 113.095Z" fill="#F8C298"/>
<path d="M67.1726 80.8268H111.414L112.581 75.1359C115.603 60.3946 104.341 46.5898 89.2942 46.5898C74.2457 46.5898 62.9843 60.3946 66.0065 75.1359L67.1726 80.8268Z" fill="#FFCF64"/>
<path d="M110.324 67.2914C109.441 67.2914 108.724 68.0079 108.724 68.891V72.3232C107.474 72.3014 105.61 72.1979 103.468 71.8477V75.0809C105.77 75.4271 107.73 75.516 108.988 75.5265H109.014C109.786 75.5265 110.513 75.2273 111.062 74.683C111.618 74.1323 111.924 73.398 111.924 72.6152V68.891C111.924 68.0079 111.208 67.2914 110.324 67.2914Z" fill="#EFC40F"/>
<path d="M68.5316 67.2914C69.4147 67.2914 70.1304 68.0079 70.1304 68.891V72.3232C71.3815 72.3014 73.2448 72.1979 75.3879 71.8477V75.0809C73.0855 75.4271 71.126 75.516 69.8668 75.5265C69.8579 75.5265 69.8498 75.5265 69.8417 75.5265C69.0686 75.5265 68.3424 75.2273 67.7924 74.683C67.2377 74.1323 66.9312 73.398 66.9312 72.6152V68.891C66.932 68.0079 67.6477 67.2914 68.5316 67.2914Z" fill="#EFC40F"/>
<path d="M113.883 83.0548C113.883 86.1643 111.362 88.6843 108.253 88.6843C105.144 88.6843 102.623 86.1643 102.623 83.0548C102.623 79.9461 105.144 77.4254 108.253 77.4254C111.362 77.4254 113.883 79.9461 113.883 83.0548Z" fill="#F8C298"/>
<path d="M75.9645 83.0548C75.9645 86.1643 73.4445 88.6843 70.335 88.6843C67.2263 88.6843 64.7056 86.1643 64.7056 83.0548C64.7056 79.9461 67.2263 77.4254 70.335 77.4254C73.4445 77.4254 75.9645 79.9461 75.9645 83.0548Z" fill="#F8C298"/>
<path d="M72.4997 74.7016L74.2376 88.618C75.1862 96.2118 81.6414 101.911 89.2935 101.911C96.9463 101.911 103.401 96.2118 104.349 88.618L106.087 74.7016C106.607 70.5416 103.364 66.8668 99.1711 66.8668H79.4166C75.2242 66.8668 71.9797 70.5416 72.4997 74.7016V74.7016Z" fill="#FFD6C0"/>
<path d="M81.0526 84.3326C80.1897 84.3326 79.478 83.6444 79.4546 82.7767L79.4303 81.8839C79.406 81.0007 80.1023 80.2656 80.9855 80.2414C81.8621 80.2155 82.6037 80.9134 82.628 81.7965L82.6522 82.6885C82.6765 83.5725 81.9802 84.3076 81.0971 84.3318C81.0825 84.3318 81.0671 84.3326 81.0526 84.3326Z" fill="#4FCEB7"/>
<path d="M97.558 84.3326C96.6951 84.3326 95.9834 83.6444 95.9599 82.7767L95.9357 81.8839C95.9114 81.0007 96.6077 80.2656 97.4908 80.2414C98.3667 80.2155 99.1091 80.9134 99.1333 81.7965L99.1584 82.6885C99.1827 83.5725 98.4864 84.3076 97.6032 84.3318C97.5879 84.3318 97.5725 84.3326 97.558 84.3326V84.3326Z" fill="#4FCEB7"/>
<path d="M89.2944 92.241C86.8043 92.241 84.4445 91.0344 82.9815 89.0143C82.4631 88.2985 82.6233 87.299 83.339 86.7806C84.0547 86.263 85.0551 86.4223 85.5726 87.138C86.4355 88.3301 87.8273 89.0418 89.2944 89.0418C90.7614 89.0418 92.1524 88.3301 93.0153 87.138C93.5328 86.4223 94.5332 86.2622 95.2489 86.7806C95.9647 87.299 96.124 88.2985 95.6064 89.0143C94.1434 91.0344 91.7836 92.241 89.2944 92.241Z" fill="#F8C298"/>
<path d="M74.7227 128.666V141.316H71.5234V128.666C71.5234 127.784 72.24 127.068 73.1231 127.068C74.0062 127.068 74.7227 127.784 74.7227 128.666Z" fill="#7FB7EA"/>
<path d="M106.476 128.666V141.316H103.277V128.666C103.277 127.784 103.993 127.068 104.876 127.068C105.76 127.068 106.476 127.784 106.476 128.666Z" fill="#7FB7EA"/>
<path d="M70.1328 64.4843V72.0207C70.1328 72.7494 70.7264 73.3381 71.4559 73.3325C74.8889 73.3025 83.1798 72.7041 89.4288 67.9885C95.6785 72.7041 103.969 73.3025 107.402 73.3325C108.132 73.3381 108.725 72.7494 108.725 72.0207V64.4843H70.1328Z" fill="#FFCF64"/>
<defs>
<clipPath id="clip0">
<rect width="39.7138" height="39.7138" fill="white" transform="translate(0.851074 73.4204) rotate(-27.0885)"/>
</clipPath>
<clipPath id="clip1">
<rect width="82.8345" height="82.8345" fill="white" transform="translate(113.159) rotate(28.2118)"/>
</clipPath>
</defs>
</svg>
