<svg width="91" height="83" viewBox="0 0 91 83" fill="none" xmlns="http://www.w3.org/2000/svg">
<g clip-path="url(#clip0)">
<path d="M0.273112 37.8587C2.73919 17.5868 21.5998 1.82104 44.5007 1.82104C69.112 1.82104 89.1323 20.1689 89.0012 42.5986C88.9487 51.575 85.6967 59.861 80.2314 66.5579C79.0259 68.035 76.4499 67.258 76.4499 65.417C76.4499 52.693 65.132 42.3781 51.1706 42.3781H4.74138C2.07586 42.3781 -0.0205948 40.2733 0.273112 37.8587Z" fill="#54469B"/>
<path d="M80.2834 15.9308V66.4942C72.1763 76.4689 59.1673 82.935 44.501 82.935C19.9237 82.935 0 64.777 0 42.378C0 42.0504 0.00435928 41.7239 0.0128962 41.3983C0.00853693 41.3938 0.00417764 41.3892 0 41.3847V15.9308C0 13.7582 1.93243 11.9971 4.31623 11.9971H8.84843C10.0403 11.9971 11.0066 12.8776 11.0066 13.9638V15.9308C11.0066 18.1035 12.9391 19.8646 15.3229 19.8646H19.6391C22.0229 19.8646 23.9555 18.1035 23.9555 15.9308V13.964C23.9555 12.8777 24.9218 11.9971 26.1137 11.9971H31.5091C32.701 11.9971 33.6673 12.8777 33.6673 13.964V15.9308C33.6673 18.1035 35.5997 19.8646 37.9835 19.8646H42.2997C44.6835 19.8646 46.616 18.1035 46.616 15.9308V13.964C46.616 12.8777 47.5823 11.9971 48.7742 11.9971H54.1695C55.3614 11.9971 56.3277 12.8777 56.3277 13.964V15.9308C56.3277 18.1035 58.2602 19.8646 60.6441 19.8646H64.9604C67.3442 19.8646 69.2768 18.1035 69.2766 15.9308V13.9638C69.2766 12.8776 70.2429 11.9971 71.4348 11.9971H75.9668C78.351 11.9971 80.2834 13.7582 80.2834 15.9308Z" fill="#FDBF43"/>
<path d="M10.9997 29.6667V69.0743C4.15058 61.9412 0 52.6013 0 42.378C0 42.0504 0.00435928 41.7239 0.0128962 41.3983C0.00853693 41.3938 0.00417764 41.3892 0 41.3847V15.9308C0 13.7582 1.93243 11.9971 4.31623 11.9971H8.84843C9.98203 11.9971 10.9113 12.7935 10.9997 13.8059V29.6664C10.9996 29.6664 10.9997 29.6665 10.9997 29.6667Z" fill="#F4AA39"/>
<path d="M56.1255 65.388V68.6988C56.1255 70.0701 54.9057 71.1819 53.401 71.1819H46.1355C44.6308 71.1819 43.411 70.0701 43.411 68.6988V65.388C43.411 64.0167 44.6308 62.9049 46.1355 62.9049H53.401C54.9057 62.9049 56.1255 64.0167 56.1255 65.388ZM71.5646 51.3172H64.2992C62.7945 51.3172 61.5746 52.429 61.5746 53.8003V57.1111C61.5746 58.4824 62.7945 59.5942 64.2992 59.5942H71.5646C73.0693 59.5942 74.2892 58.4824 74.2892 57.1111V53.8003C74.2892 52.429 73.0693 51.3172 71.5646 51.3172ZM38.87 33.1079H31.6046C30.0999 33.1079 28.88 34.2197 28.88 35.591V38.9018C28.88 40.2731 30.0999 41.3849 31.6046 41.3849H38.87C40.3747 41.3849 41.5946 40.2731 41.5946 38.9018V35.591C41.5946 34.2197 40.3747 33.1079 38.87 33.1079ZM22.5227 33.1079H15.2573C13.7526 33.1079 12.5327 34.2197 12.5327 35.591V38.9018C12.5327 40.2731 13.7526 41.3849 15.2573 41.3849H22.5227C24.0274 41.3849 25.2473 40.2731 25.2473 38.9018V35.591C25.2473 34.2197 24.0274 33.1079 22.5227 33.1079ZM71.5646 33.1079H64.2992C62.7945 33.1079 61.5746 34.2197 61.5746 35.591V38.9018C61.5746 40.2731 62.7945 41.3849 64.2992 41.3849H71.5646C73.0693 41.3849 74.2892 40.2731 74.2892 38.9018V35.591C74.2892 34.2197 73.0693 33.1079 71.5646 33.1079Z" fill="#FC9302"/>
<path d="M31.7208 32.1365L37.5875 42.97C38.7641 45.143 41.0388 46.6491 43.67 46.9976L56.7881 48.7347C57.8925 48.8809 58.3335 50.1178 57.5343 50.8278L48.042 59.2605C46.138 60.952 45.2693 63.3889 45.7186 65.7773L47.9595 77.6845C48.1482 78.6869 46.9937 79.4513 46.006 78.9781L34.2728 73.3562C31.9193 72.2285 29.1078 72.2285 26.7545 73.3562L15.0213 78.9781C14.0336 79.4513 12.8791 78.6869 13.0678 77.6845L15.3087 65.7773C15.7582 63.3889 14.8893 60.952 12.9853 59.2605L3.493 50.8278C2.69398 50.118 3.13481 48.8811 4.23916 48.7347L17.3573 46.9976C19.9885 46.6491 22.2632 45.143 23.4398 42.97L29.3065 32.1365C29.8 31.2245 31.2269 31.2245 31.7208 32.1365Z" fill="#FDF385"/>
<path d="M57.534 50.8278L48.0417 59.2605C46.1377 60.952 45.269 63.3889 45.7183 65.7771L45.7612 66.0046C34.0189 63.8099 24.5989 55.8099 21.27 45.4399C22.1682 44.7789 22.9135 43.9412 23.4395 42.97L29.306 32.1365C29.7999 31.2245 31.2268 31.2245 31.7207 32.1365L37.5874 42.97C38.764 45.143 41.0386 46.6491 43.6698 46.9976L56.788 48.7347C57.8922 48.8811 58.3332 50.1178 57.534 50.8278Z" fill="#FDF7BD"/>
<path d="M72.1751 26.5206L61.9001 17.1562L78.5968 1.93917C81.4342 -0.646716 86.0345 -0.646716 88.8717 1.93917C91.709 4.52506 91.709 8.71766 88.8717 11.3034L72.1751 26.5206ZM27.3557 61.5154L45.3368 45.1278C46.4008 44.1581 46.4008 42.586 45.3368 41.6162C44.2728 40.6465 42.5478 40.6465 41.4837 41.6162L23.5026 58.0038C22.4386 58.9735 22.4386 60.5456 23.5026 61.5154C24.5665 62.4849 26.2916 62.4849 27.3557 61.5154Z" fill="#E659A9"/>
<path d="M82.4223 5.42575L65.7255 20.6428L61.8999 17.1562L78.5967 1.93917C81.434 -0.646716 86.0343 -0.646716 88.8715 1.93917C89.5477 2.55547 90.0609 3.26365 90.4149 4.019C87.7664 2.98852 84.5834 3.45617 82.4223 5.42575Z" fill="#DF3D9B"/>
<path d="M31.7866 53.9656C28.1753 50.6744 28.1753 45.338 31.7866 42.0468L73.3427 4.17362C74.7613 2.88076 77.0616 2.88076 78.4801 4.17362L86.4206 11.4103C87.8391 12.7032 87.8391 14.7996 86.4206 16.0924L44.8644 53.9656C41.2531 57.2569 35.3979 57.2569 31.7866 53.9656Z" fill="#FD4343"/>
<path d="M34.9725 55.8627C33.8118 55.452 32.7237 54.8196 31.7866 53.9656C28.1753 50.6744 28.1753 45.338 31.7866 42.0468L73.3427 4.17362C74.7613 2.88076 77.0616 2.88076 78.4801 4.17362L86.4206 11.4103C86.4208 11.4105 86.4209 11.4107 86.4211 11.4108L83.7476 8.97426C82.3288 7.68123 80.0288 7.68123 78.6102 8.97426L37.0541 46.8474C34.3798 49.2848 33.686 52.8434 34.9725 55.8627Z" fill="#D00041"/>
</g>
<defs>
<clipPath id="clip0">
<rect width="91" height="82.9351" fill="white"/>
</clipPath>
</defs>
</svg>
