<svg width="119" height="119" viewBox="0 0 119 119" fill="none" xmlns="http://www.w3.org/2000/svg">
<path d="M102.586 16.4138H16.4139C11.9001 16.4138 8.20703 20.1069 8.20703 24.6207V73.8621C8.20703 78.3759 11.9001 82.069 16.4139 82.069H45.1381L57.8588 98.4828C58.2691 98.8931 58.8846 99.3035 59.5001 99.3035C60.1156 99.3035 60.7312 99.0983 61.1415 98.4828L73.8622 82.069H102.586C107.1 82.069 110.793 78.3759 110.793 73.8621V24.6207C110.793 20.1069 107.1 16.4138 102.586 16.4138Z" fill="#F29C1F"/>
<path d="M46.7795 39.188C49.9523 39.188 52.5243 36.616 52.5243 33.4432C52.5243 30.2704 49.9523 27.6984 46.7795 27.6984C43.6067 27.6984 41.0347 30.2704 41.0347 33.4432C41.0347 36.616 43.6067 39.188 46.7795 39.188Z" fill="white"/>
<path d="M74.8881 71.8104C77.7209 71.8104 80.0174 69.5139 80.0174 66.6811C80.0174 63.8482 77.7209 61.5518 74.8881 61.5518C72.0553 61.5518 69.7588 63.8482 69.7588 66.6811C69.7588 69.5139 72.0553 71.8104 74.8881 71.8104Z" fill="white"/>
<path d="M45.138 71.8104C43.4966 71.8104 42.0604 70.9898 41.4449 69.5536C40.8293 68.1173 41.0345 66.476 42.0604 65.2449L72.8362 28.3139C74.2724 26.4673 76.9397 26.2622 78.5811 27.6984C80.4276 29.1346 80.6328 31.8018 79.1966 33.4432L48.4207 70.3742C47.6 71.1949 46.369 71.8104 45.138 71.8104V71.8104Z" fill="white"/>
</svg>
