<svg width="100" height="100" viewBox="0 0 100 100" fill="none" xmlns="http://www.w3.org/2000/svg">
<path d="M70.5078 0.390625V0H20.7031V44.3359H23.6328C33.1108 44.3413 38.6116 55.0423 33.2619 62.6854C27.4628 70.9511 28.5179 81.424 37.1483 84.6252L41.2109 88.2812V96.9925L44.1406 100H96.875V26.7578C82.3128 26.7578 70.5078 14.9529 70.5078 0.390625Z" fill="#FFF7CC"/>
<path d="M32.2266 73.6328C32.2792 73.336 31.7657 69.6579 35.4668 64.3654C37.1796 61.9179 38.0859 59.0431 38.0859 56.0547C38.0859 47.8668 31.4377 41.4101 23.4375 41.4062C16.317 41.4062 10.7033 46.4127 9.23233 52.42C8.12073 56.971 9.14078 61.6287 12.0331 65.1955C14.8148 68.6272 14.6423 73.5916 14.6484 73.6328C14.6484 78.4782 10.7048 82.4219 5.85938 82.4219L23.4375 84.7656L41.0156 82.4219C36.1702 82.4219 32.2266 78.4782 32.2266 73.6328Z" fill="#FDBF00"/>
<path d="M32.2266 73.6328C32.2792 73.336 31.7657 69.6579 35.4668 64.3654C37.1796 61.9179 38.0859 59.0431 38.0859 56.0547C38.0859 47.8668 31.4377 41.4101 23.4375 41.4062V84.7656L41.0156 82.4219C36.1702 82.4219 32.2266 78.4782 32.2266 73.6328Z" fill="#FF9100"/>
<path d="M5.85938 85.3516C4.24118 85.3516 2.92969 86.6631 2.92969 88.2812V100H43.9453V88.2812C43.9453 86.6631 42.6338 85.3516 41.0156 85.3516H5.85938Z" fill="#725D57"/>
<path d="M41.0156 85.3516C42.6338 85.3516 43.9453 86.6631 43.9453 88.2812V100H23.4375V85.3516H41.0156Z" fill="#53433F"/>
<path d="M2.92969 82.4219H43.9453V88.2812H2.92969V82.4219Z" fill="#FFDA2D"/>
<path d="M23.4375 82.4219H43.9453V88.2812H23.4375V82.4219Z" fill="#FDBF00"/>
<path d="M96.875 26.7578V100H58.7891V0H70.5078V0.390625C70.5078 14.9529 82.3128 26.7578 96.875 26.7578Z" fill="#FFE6B3"/>
<path d="M67.5781 88.2812C57.8857 88.2812 50 80.3955 50 70.7031C50 61.0107 57.8857 53.125 67.5781 53.125C77.2705 53.125 85.1562 61.0107 85.1562 70.7031C85.1562 80.3955 77.2705 88.2812 67.5781 88.2812Z" fill="#FF637B"/>
<path d="M79.2969 70.7031C79.2969 77.1637 74.0387 82.4219 67.5781 82.4219C61.1176 82.4219 55.8594 77.1637 55.8594 70.7031C55.8594 64.2426 61.1176 58.9844 67.5781 58.9844C74.0387 58.9844 79.2969 64.2426 79.2969 70.7031Z" fill="#E63950"/>
<path d="M67.5781 53.125V88.2812C77.2705 88.2812 85.1562 80.3955 85.1562 70.7031C85.1562 61.0107 77.2705 53.125 67.5781 53.125Z" fill="#E63950"/>
<path d="M79.2969 70.7031C79.2969 77.1637 74.0387 82.4219 67.5781 82.4219V58.9844C74.0387 58.9844 79.2969 64.2426 79.2969 70.7031Z" fill="#CD0000"/>
<path d="M32.4219 17.9688H61.7188V23.8281H32.4219V17.9688Z" fill="#725D57"/>
<path d="M32.4219 29.6875H61.7188V35.5469H32.4219V29.6875Z" fill="#725D57"/>
<path d="M44.1406 41.4062H85.1562V47.2656H44.1406V41.4062Z" fill="#725D57"/>
<path d="M96.875 26.7578L70.5078 0V26.7578H96.875Z" fill="#FFCA80"/>
<path d="M58.7891 17.9688H61.7188V23.8281H58.7891V17.9688Z" fill="#53433F"/>
<path d="M58.7891 29.6875H61.7188V35.5469H58.7891V29.6875Z" fill="#53433F"/>
<path d="M58.7891 41.4062H85.1562V47.2656H58.7891V41.4062Z" fill="#53433F"/>
</svg>
