<svg width="141" height="140" viewBox="0 0 141 140" fill="none" xmlns="http://www.w3.org/2000/svg">
<g clip-path="url(#clip0)" filter="url(#filter0_d)">
<path d="M84.5601 128.969L84.56 128.969C81.8534 131.677 77.4651 131.677 74.7585 128.969L74.7583 128.969L70.5989 124.809C74.4957 119.437 73.9551 111.963 69.1988 107.206C64.4424 102.449 56.9686 101.909 51.5958 105.806L49.0898 103.3C46.3866 100.597 46.3832 96.2158 49.0813 93.5078L98.3694 44.0394L98.3744 44.0344C98.3756 44.0333 98.3767 44.0321 98.3779 44.0309L98.3783 44.0306C101.084 41.3228 105.473 41.3228 108.179 44.0306L108.179 44.0308L111.723 47.5751C108.626 52.8599 109.255 59.6426 113.84 64.2288C118.274 68.6916 125.15 69.5257 130.5 66.3492L133.938 69.7886C136.645 72.496 136.645 76.8846 133.938 79.592C133.938 79.5921 133.938 79.5921 133.938 79.5921L84.5601 128.969Z" fill="#FDD030" stroke="#331EB8" stroke-width="2"/>
<path d="M122.606 81.852L94.5871 109.871L68.093 83.3759L68.0869 83.3706L96.1057 55.3518L122.606 81.852Z" fill="#CE6868"/>
<path d="M99.9104 82.1778L103.851 87.4578L97.2632 87.373L93.4609 92.7515L91.5045 86.461L85.2163 84.5068L90.5933 80.7023L90.51 74.1172L95.7878 78.0558L102.026 75.9403L99.9104 82.1778Z" fill="#FEDB41"/>
<path d="M94.5874 109.871L86.8222 117.636L60.3213 91.1363L68.0872 83.3704L68.0933 83.3757L94.5874 109.871Z" fill="#DC1E26"/>
</g>
<g clip-path="url(#clip1)" filter="url(#filter1_d)">
<path d="M42.5601 87.9688L42.56 87.969C39.8534 90.6769 35.4651 90.6769 32.7585 87.969L32.7583 87.9688L28.5989 83.8093C32.4957 78.4365 31.9551 70.9627 27.1988 66.2064C22.4424 61.4493 14.9686 60.9095 9.59582 64.8063L7.08982 62.3003C4.3866 59.5971 4.38319 55.2158 7.08127 52.5078L56.3694 3.0394L56.3744 3.03439C56.3756 3.03325 56.3767 3.0321 56.3779 3.03093L56.3783 3.03058C59.084 0.322813 63.473 0.322813 66.1788 3.03058L66.179 3.03084L69.7233 6.57509C66.626 11.8599 67.2553 18.6426 71.8396 23.2288C76.2745 27.6916 83.1499 28.5257 88.4996 25.3492L91.9383 28.7886C94.645 31.496 94.6451 35.8846 91.9384 38.592C91.9384 38.5921 91.9384 38.5921 91.9383 38.5921L42.5601 87.9688Z" fill="#FDD030" stroke="#331EB8" stroke-width="2"/>
<path d="M80.6059 40.852L52.5871 68.8708L26.093 42.3759L26.0869 42.3706L54.1057 14.3518L80.6059 40.852Z" fill="#CE6868"/>
<path d="M57.9104 41.1778L61.8506 46.4578L55.2632 46.373L51.4609 51.7515L49.5045 45.461L43.2163 43.5068L48.5933 39.7023L48.51 33.1172L53.7878 37.0558L60.0259 34.9403L57.9104 41.1778Z" fill="#FEDB41"/>
<path d="M52.5874 68.8705L44.8222 76.6364L18.3213 50.1363L26.0872 42.3704L26.0933 42.3757L52.5874 68.8705Z" fill="#DC1E26"/>
</g>
<g clip-path="url(#clip2)" filter="url(#filter2_d)">
<path d="M51.5601 121.969L51.56 121.969C48.8534 124.677 44.4651 124.677 41.7585 121.969L41.7583 121.969L37.5989 117.809C41.4957 112.437 40.9551 104.963 36.1988 100.206C31.4424 95.4493 23.9686 94.9095 18.5958 98.8063L16.0898 96.3003C13.3866 93.5971 13.3832 89.2158 16.0813 86.5078L65.3694 37.0394L65.3744 37.0344C65.3756 37.0333 65.3767 37.0321 65.3779 37.0309L65.3783 37.0306C68.084 34.3228 72.473 34.3228 75.1788 37.0306L75.179 37.0308L78.7233 40.5751C75.626 45.8599 76.2553 52.6426 80.8396 57.2288C85.2745 61.6916 92.1499 62.5257 97.4996 59.3492L100.938 62.7886C103.645 65.496 103.645 69.8846 100.938 72.592C100.938 72.5921 100.938 72.5921 100.938 72.5921L51.5601 121.969Z" fill="#FDD030" stroke="#331EB8" stroke-width="2"/>
<path d="M89.6059 74.852L61.5871 102.871L35.093 76.3759L35.0869 76.3706L63.1057 48.3518L89.6059 74.852Z" fill="#CE6868"/>
<path d="M66.9104 75.1778L70.8506 80.4578L64.2632 80.373L60.4609 85.7515L58.5045 79.461L52.2163 77.5068L57.5933 73.7023L57.51 67.1172L62.7878 71.0558L69.0259 68.9403L66.9104 75.1778Z" fill="#FEDB41"/>
<path d="M61.5874 102.871L53.8222 110.636L27.3213 84.1363L35.0872 76.3704L35.0933 76.3757L61.5874 102.871Z" fill="#DC1E26"/>
</g>
<defs>
<filter id="filter0_d" x="42" y="41" width="99" height="99" filterUnits="userSpaceOnUse" color-interpolation-filters="sRGB">
<feFlood flood-opacity="0" result="BackgroundImageFix"/>
<feColorMatrix in="SourceAlpha" type="matrix" values="0 0 0 0 0 0 0 0 0 0 0 0 0 0 0 0 0 0 127 0"/>
<feOffset dy="4"/>
<feGaussianBlur stdDeviation="2"/>
<feColorMatrix type="matrix" values="0 0 0 0 0 0 0 0 0 0 0 0 0 0 0 0 0 0 0.25 0"/>
<feBlend mode="normal" in2="BackgroundImageFix" result="effect1_dropShadow"/>
<feBlend mode="normal" in="SourceGraphic" in2="effect1_dropShadow" result="shape"/>
</filter>
<filter id="filter1_d" x="0" y="0" width="99" height="99" filterUnits="userSpaceOnUse" color-interpolation-filters="sRGB">
<feFlood flood-opacity="0" result="BackgroundImageFix"/>
<feColorMatrix in="SourceAlpha" type="matrix" values="0 0 0 0 0 0 0 0 0 0 0 0 0 0 0 0 0 0 127 0"/>
<feOffset dy="4"/>
<feGaussianBlur stdDeviation="2"/>
<feColorMatrix type="matrix" values="0 0 0 0 0 0 0 0 0 0 0 0 0 0 0 0 0 0 0.25 0"/>
<feBlend mode="normal" in2="BackgroundImageFix" result="effect1_dropShadow"/>
<feBlend mode="normal" in="SourceGraphic" in2="effect1_dropShadow" result="shape"/>
</filter>
<filter id="filter2_d" x="9" y="34" width="99" height="99" filterUnits="userSpaceOnUse" color-interpolation-filters="sRGB">
<feFlood flood-opacity="0" result="BackgroundImageFix"/>
<feColorMatrix in="SourceAlpha" type="matrix" values="0 0 0 0 0 0 0 0 0 0 0 0 0 0 0 0 0 0 127 0"/>
<feOffset dy="4"/>
<feGaussianBlur stdDeviation="2"/>
<feColorMatrix type="matrix" values="0 0 0 0 0 0 0 0 0 0 0 0 0 0 0 0 0 0 0.25 0"/>
<feBlend mode="normal" in2="BackgroundImageFix" result="effect1_dropShadow"/>
<feBlend mode="normal" in="SourceGraphic" in2="effect1_dropShadow" result="shape"/>
</filter>
<clipPath id="clip0">
<rect width="91" height="91" fill="white" transform="translate(46 41)"/>
</clipPath>
<clipPath id="clip1">
<rect width="91" height="91" fill="white" transform="translate(4)"/>
</clipPath>
<clipPath id="clip2">
<rect width="91" height="91" fill="white" transform="translate(13 34)"/>
</clipPath>
</defs>
</svg>
