<svg width="155" height="130" viewBox="0 0 155 130" fill="none" xmlns="http://www.w3.org/2000/svg">
<g clip-path="url(#clip0)">
<path d="M139.976 6.93751C139.976 6.93751 142.241 3.39754 140.747 0.952061C140.174 0.0149097 138.95 -0.280639 138.013 0.291921C137.342 0.702207 137 1.44687 137.07 2.18079C136.45 1.78297 135.631 1.74748 134.959 2.15769C134.022 2.73025 133.727 3.95408 134.299 4.89127C135.793 7.33675 139.976 6.93751 139.976 6.93751Z" fill="white" fill-opacity="0.5"/>
<path d="M140.913 8.47024C140.913 8.47024 138.649 12.0101 140.143 14.4557C140.715 15.3928 141.939 15.6884 142.876 15.1158C143.548 14.7055 143.89 13.9609 143.819 13.2269C144.44 13.6248 145.259 13.6603 145.93 13.2501C146.867 12.6775 147.163 11.4536 146.59 10.5166C145.096 8.07096 140.913 8.47024 140.913 8.47024Z" fill="white" fill-opacity="0.5"/>
<path d="M147.857 5.27257C147.447 4.601 146.702 4.25896 145.968 4.32968C146.366 3.70887 146.401 2.89023 145.991 2.2187C145.418 1.28155 144.195 0.985963 143.258 1.55848C140.812 3.05258 141.211 7.23579 141.211 7.23579C141.211 7.23579 144.751 9.50021 147.197 8.00615C148.134 7.43359 148.429 6.20972 147.857 5.27257Z" fill="white" fill-opacity="0.5"/>
<path d="M134.921 11.0783C134.524 11.6991 134.488 12.5178 134.898 13.1893C135.471 14.1264 136.695 14.422 137.632 13.8495C140.077 12.3554 139.678 8.17214 139.678 8.17214C139.678 8.17214 136.138 5.90771 133.693 7.40186C132.756 7.97438 132.46 9.19825 133.033 10.1354C133.443 10.807 134.188 11.149 134.921 11.0783Z" fill="white" fill-opacity="0.5"/>
<path d="M139.068 13.2588C139.04 13.3198 139.012 13.3877 138.978 13.4601C138.942 13.5319 138.907 13.6101 138.862 13.6908C138.777 13.8537 138.671 14.0314 138.544 14.2164C138.418 14.4016 138.271 14.5938 138.103 14.7854C137.936 14.9773 137.748 15.1685 137.544 15.3542C137.34 15.5399 137.119 15.7199 136.886 15.8913C136.654 16.0622 136.409 16.2241 136.158 16.3759C135.657 16.6795 135.131 16.9398 134.627 17.155C134.122 17.3708 133.64 17.5417 133.223 17.6725C132.807 17.8034 132.456 17.8939 132.214 17.9506C132.093 17.9789 131.999 17.9988 131.937 18.011C131.908 18.0165 131.885 18.0207 131.87 18.0235C131.862 18.025 131.859 18.025 131.857 18.0252C131.855 18.0253 131.851 18.0262 131.851 18.0261L132.445 20.0001C132.445 20.0001 132.457 19.9955 132.481 19.9864C132.5 19.978 132.53 19.9654 132.569 19.9492C132.643 19.917 132.748 19.8699 132.878 19.8084C133.139 19.685 133.503 19.5029 133.925 19.2642C134.346 19.0254 134.827 18.73 135.32 18.382C135.812 18.0346 136.318 17.6344 136.785 17.1938C137.019 16.9736 137.244 16.7441 137.454 16.5082C137.664 16.2718 137.858 16.0294 138.033 15.7858C138.208 15.5423 138.363 15.2977 138.495 15.0588C138.628 14.82 138.739 14.5871 138.828 14.3682C138.918 14.1494 138.988 13.945 139.039 13.7615C139.066 13.6705 139.086 13.5834 139.106 13.5042C139.125 13.4245 139.138 13.3504 139.152 13.2843C139.176 13.1507 139.193 13.0463 139.201 12.9745C139.21 12.9031 139.214 12.865 139.214 12.865C139.214 12.865 139.202 12.9012 139.178 12.9692C139.156 13.0373 139.117 13.1355 139.068 13.2588Z" fill="white" fill-opacity="0.5"/>
</g>
<g clip-path="url(#clip1)">
<path d="M148.331 96.5449L150.112 100.76L154.671 101.151C154.987 101.179 155.116 101.573 154.876 101.781L151.418 104.777L152.454 109.234C152.526 109.544 152.19 109.787 151.919 109.623L148.001 107.26L144.082 109.623C143.81 109.787 143.475 109.543 143.547 109.234L144.583 104.777L141.125 101.78C140.884 101.573 141.012 101.178 141.329 101.151L145.888 100.759L147.669 96.5449C147.793 96.2516 148.208 96.2516 148.331 96.5449Z" fill="white" fill-opacity="0.5"/>
</g>
<g clip-path="url(#clip2)">
<path d="M0.465809 38.1201C0.465821 38.1201 0.465775 38.1202 0.465809 38.1201ZM0.465809 38.1201L0.46575 38.1202L0.46246 38.0819L0.462424 38.0814L0.422954 37.622L0.465809 38.1201ZM6.74523 37.313L8.99977 31.9778L11.2543 37.3139L11.3717 37.5917L11.6721 37.6175L17.4444 38.1134L13.0663 41.9065L12.8385 42.1039L12.9067 42.3976L14.2186 48.0399L9.25845 45.0486L9.00023 44.8928L8.74201 45.0486L3.78186 48.0399L5.09373 42.3976L5.16202 42.1039L4.93413 41.9065L0.555102 38.1125L6.32746 37.6166L6.62787 37.5908L6.74523 37.313Z" stroke="white" stroke-opacity="0.55"/>
</g>
<circle cx="150" cy="64" r="4" fill="white" fill-opacity="0.45"/>
<circle cx="51" cy="128" r="2" fill="white" fill-opacity="0.45"/>
<defs>
<clipPath id="clip0">
<rect width="20" height="20" fill="white" transform="translate(130)"/>
</clipPath>
<clipPath id="clip1">
<rect width="14" height="14" fill="white" transform="translate(141 96)"/>
</clipPath>
<clipPath id="clip2">
<rect width="18" height="18" fill="white" transform="translate(0 31)"/>
</clipPath>
</defs>
</svg>
