<svg width="63" height="34" viewBox="0 0 63 34" fill="none" xmlns="http://www.w3.org/2000/svg">
<g clip-path="url(#clip0)">
<path d="M43.3192 32.7783L43.3193 32.7782L61.7683 14.3298C62.7303 13.3676 62.7303 11.8078 61.7683 10.8456L60.5523 9.62936C58.5167 10.787 55.9334 10.4532 54.2588 8.76819C52.5281 7.03676 52.2705 4.48709 53.3998 2.47769L52.144 1.22185L52.1438 1.22172C51.1823 0.259425 49.6225 0.259425 48.6609 1.22172L48.6607 1.22189C48.6602 1.22239 48.6597 1.22287 48.6593 1.22336L48.6577 1.22489L30.2424 19.7076C29.2835 20.67 29.2847 22.2271 30.2454 23.1878L31.1063 24.0486C33.1565 22.6251 35.9632 22.8515 37.7587 24.6472L43.3192 32.7783ZM43.3192 32.7783C42.3574 33.7407 40.7978 33.7407 39.8359 32.7783L39.8358 32.7782L38.3572 31.2996C39.7807 29.2493 39.5541 26.4426 37.7587 24.6472L43.3192 32.7783Z" fill="#FDD030" stroke="#CE6868"/>
<path d="M57.6222 15.2635L47.1536 25.732L37.2547 15.8328L37.2524 15.8309L47.721 5.3623L57.6222 15.2635Z" fill="#CE6868"/>
<path d="M49.142 15.3857L50.6141 17.3584L48.1529 17.3267L46.7323 19.3363L46.0013 16.986L43.6519 16.2559L45.6608 14.8344L45.6297 12.374L47.6016 13.8456L49.9324 13.0552L49.142 15.3857Z" fill="#FEDB41"/>
<path d="M47.1533 25.7322L44.252 28.6338L34.3506 18.7326L37.2521 15.8311L37.2544 15.833L47.1533 25.7322Z" fill="#DC1E26"/>
</g>
<g clip-path="url(#clip1)">
<path d="M29.3192 32.7783L29.3193 32.7782L47.7683 14.3298C48.7303 13.3676 48.7303 11.8078 47.7683 10.8456L46.5523 9.62936C44.5167 10.787 41.9334 10.4532 40.2588 8.76819C38.5281 7.03676 38.2705 4.48709 39.3998 2.47769L38.144 1.22185L38.1438 1.22172C37.1823 0.259425 35.6225 0.259425 34.6609 1.22172L34.6607 1.22189C34.6602 1.22239 34.6597 1.22287 34.6593 1.22336L34.6577 1.22489L16.2424 19.7076C15.2835 20.67 15.2847 22.2271 16.2454 23.1878L17.1063 24.0486C19.1565 22.6251 21.9632 22.8515 23.7587 24.6472L29.3192 32.7783ZM29.3192 32.7783C28.3574 33.7407 26.7978 33.7407 25.8359 32.7783L25.8358 32.7782L24.3572 31.2996C25.7807 29.2493 25.5541 26.4426 23.7587 24.6472L29.3192 32.7783Z" fill="#FDD030" stroke="#CE6868"/>
<path d="M43.6222 15.2635L33.1536 25.732L23.2547 15.8328L23.2524 15.8309L33.721 5.3623L43.6222 15.2635Z" fill="#CE6868"/>
<path d="M35.142 15.3857L36.6141 17.3584L34.1529 17.3267L32.7323 19.3363L32.0013 16.986L29.6519 16.2559L31.6608 14.8344L31.6297 12.374L33.6016 13.8456L35.9324 13.0552L35.142 15.3857Z" fill="#FEDB41"/>
<path d="M33.1534 25.7322L30.2521 28.6338L20.3506 18.7326L23.2522 15.8311L23.2545 15.833L33.1534 25.7322Z" fill="#DC1E26"/>
</g>
<g clip-path="url(#clip2)">
<path d="M14.3192 32.7783L14.3193 32.7782L32.7683 14.3298C33.7303 13.3676 33.7303 11.8078 32.7683 10.8456L31.5523 9.62936C29.5167 10.787 26.9334 10.4532 25.2588 8.76819C23.5281 7.03676 23.2705 4.48709 24.3998 2.47769L23.144 1.22185L23.1438 1.22172C22.1823 0.259425 20.6225 0.259425 19.6609 1.22172L19.6607 1.22189C19.6602 1.22239 19.6597 1.22287 19.6593 1.22336L19.6577 1.22489L1.24238 19.7076C0.283487 20.67 0.284715 22.2271 1.24541 23.1878L2.10625 24.0486C4.1565 22.6251 6.9632 22.8515 8.75865 24.6472L14.3192 32.7783ZM14.3192 32.7783C13.3574 33.7407 11.7978 33.7407 10.8359 32.7783L10.8358 32.7782L9.35722 31.2996C10.7807 29.2493 10.5541 26.4426 8.75868 24.6472L14.3192 32.7783Z" fill="#FDD030" stroke="#CE6868"/>
<path d="M28.6222 15.2635L18.1536 25.732L8.25471 15.8328L8.25244 15.8309L18.721 5.3623L28.6222 15.2635Z" fill="#CE6868"/>
<path d="M20.142 15.3857L21.6142 17.3584L19.153 17.3267L17.7323 19.3363L17.0013 16.986L14.6519 16.2559L16.6609 14.8344L16.6298 12.374L18.6017 13.8456L20.9324 13.0552L20.142 15.3857Z" fill="#FEDB41"/>
<path d="M18.1534 25.7322L15.2521 28.6338L5.35065 18.7326L8.2522 15.8311L8.25446 15.833L18.1534 25.7322Z" fill="#DC1E26"/>
</g>
<defs>
<clipPath id="clip0">
<rect width="34" height="34" fill="white" transform="translate(29)"/>
</clipPath>
<clipPath id="clip1">
<rect width="34" height="34" fill="white" transform="translate(15)"/>
</clipPath>
<clipPath id="clip2">
<rect width="34" height="34" fill="white"/>
</clipPath>
</defs>
</svg>
