<svg width="75" height="75" viewBox="0 0 75 75" fill="none" xmlns="http://www.w3.org/2000/svg">
<path d="M71.2228 35.1611L38.0277 1.96265C36.7198 0.654779 35.0062 0 33.2927 0C31.5792 0 29.864 0.654779 28.5578 1.96265L10.3788 20.1383C7.76305 22.754 7.76305 27.0766 10.3788 29.6923L13.3918 32.7878H20.3419L13.8547 26.2164C13.4002 25.7603 13.3329 25.1896 13.3329 24.9136C13.3329 24.6375 13.4002 24.0871 13.8547 23.6327L16.255 21.3064L27.6623 32.7878H38.605L21.7255 15.8241L32.032 5.47725C32.4864 5.02278 33.0167 4.93694 33.2927 4.93694C33.5688 4.93694 34.099 4.99417 34.5535 5.44696L67.7503 38.6404C68.2064 39.0966 68.2754 39.6217 68.2754 39.8995C68.2754 40.1755 68.1576 40.704 67.7014 41.1602L65.8196 42.9966V49.9467L71.179 44.6361C73.7931 42.0153 73.8402 37.7769 71.2228 35.1611Z" fill="white"/>
<path d="M55.6476 35.9004H8.69706C4.99898 35.9004 1.83618 38.8797 1.83618 42.5778V60.3359H62.261V42.5778C62.261 38.8797 59.3457 35.9004 55.6476 35.9004ZM18.2444 54.2898C16.9331 54.2898 15.7465 53.768 14.8712 52.9263C13.9959 53.768 12.8075 54.2898 11.4996 54.2898C8.80983 54.2898 6.62668 52.11 6.62668 49.4151C6.62668 46.7236 8.80815 44.5421 11.4996 44.5421C12.8092 44.5421 13.9976 45.0623 14.8712 45.9039C15.7465 45.0623 16.9331 44.5421 18.2444 44.5421C20.9359 44.5421 23.1173 46.7236 23.1173 49.4151C23.1173 52.11 20.9359 54.2898 18.2444 54.2898Z" fill="white"/>
<path d="M1.83618 68.2821C1.83618 71.9801 4.9973 74.9982 8.69706 74.9982H55.6476C59.3457 74.9982 62.2627 71.9801 62.2627 68.2821V67.8882H1.83618V68.2821Z" fill="white"/>
</svg>
