<svg width="58" height="58" viewBox="0 0 58 58" fill="none" xmlns="http://www.w3.org/2000/svg">
<g clip-path="url(#clip0)">
<path d="M1.02445 27.9649L14.3888 32.9529L19.5616 49.5887C19.8926 50.6541 21.1955 51.0479 22.0603 50.3409L29.5098 44.2679C30.2907 43.6317 31.4029 43.6 32.219 44.1923L45.6553 53.9474C46.5804 54.6198 47.891 54.1129 48.123 52.995L57.9658 5.64941C58.219 4.42831 57.0192 3.40964 55.8565 3.85933L1.00879 25.0179C-0.344736 25.5399 -0.332942 27.4562 1.02445 27.9649ZM18.728 30.2977L44.8469 14.211C45.3163 13.9227 45.7993 14.5574 45.3962 14.9313L23.8405 34.9684C23.0828 35.6737 22.5941 36.6175 22.4556 37.642L21.7214 43.0836C21.6241 43.8101 20.6035 43.8822 20.403 43.1791L17.579 33.2562C17.2556 32.1245 17.7269 30.9156 18.728 30.2977Z" fill="white"/>
</g>
<defs>
<clipPath id="clip0">
<rect width="58" height="58" fill="white"/>
</clipPath>
</defs>
</svg>
