<svg width="60" height="60" viewBox="0 0 60 60" fill="none" xmlns="http://www.w3.org/2000/svg">
<g clip-path="url(#clip0)">
<path d="M14.0211 12.1654L37.9403 5.63644L36.6736 3.07608C35.8448 1.41185 33.8235 0.724597 32.1593 1.55334L10.7466 12.1654H14.0211Z" fill="#000000"/>
<path d="M45.3654 5.82568C45.069 5.82568 44.7725 5.86611 44.476 5.94696L38.8568 7.48318L21.6956 12.1659H41.1745H49.6641L48.613 8.31192C48.2087 6.8094 46.8477 5.82568 45.3654 5.82568Z" fill="#000000"/>
<path d="M53.1746 14.5234H52.4065H51.3622H50.3178H42.347H13.0578H9.21729H5.98316H5.38349H3.37563C2.31106 14.5234 1.36103 15.0153 0.741157 15.7901C0.45817 16.1472 0.24256 16.5582 0.12128 17.0097C0.0471645 17.2927 0 17.5891 0 17.8923V18.2966V22.1371V55.4285C0 57.2882 1.50926 58.7974 3.36889 58.7974H53.1679C55.0276 58.7974 56.5368 57.2882 56.5368 55.4285V46.0293H36.5458C33.3857 46.0293 30.8186 43.4622 30.8186 40.3022V37.2163V36.1719V35.1276V32.8098C30.8186 31.2601 31.4385 29.852 32.4424 28.8211C33.3318 27.9047 34.5244 27.2848 35.8585 27.1298C36.0809 27.103 36.3099 27.0894 36.539 27.0894H53.7339H54.7782H55.8226H56.5368V17.8923C56.5435 16.0327 55.0343 14.5234 53.1746 14.5234Z" fill="#000000"/>
<path d="M58.9019 30.3098C58.565 29.9999 58.1675 29.7641 57.7228 29.6091C57.3791 29.4946 57.0153 29.4272 56.6313 29.4272H56.5437H56.4763H55.432H51.6655H36.5459C34.6862 29.4272 33.177 30.9364 33.177 32.7961V34.4738V35.5181V36.5625V40.2952C33.177 42.1549 34.6862 43.6641 36.5459 43.6641H56.5437H56.6313C57.0153 43.6641 57.3792 43.5967 57.7228 43.4822C58.1675 43.334 58.565 43.0914 58.9019 42.7815C59.5757 42.1683 60.0002 41.2789 60.0002 40.2953V32.7961C60.0002 31.8124 59.5757 30.9229 58.9019 30.3098ZM43.5802 37.2161C43.5802 38.1459 42.8255 38.9005 41.8957 38.9005H40.7772C39.8474 38.9005 39.0928 38.1459 39.0928 37.2161V36.0976C39.0928 35.5586 39.3421 35.0801 39.7396 34.7769C40.0293 34.5546 40.3865 34.4131 40.7772 34.4131H41.0602H41.8957C42.8255 34.4131 43.5802 35.1677 43.5802 36.0976V37.2161Z" fill="#000000"/>
</g>
<defs>
<clipPath id="clip0">
<rect width="60" height="60" fill="#000000"/>
</clipPath>
</defs>
</svg>
