<svg width="65" height="65" viewBox="0 0 65 65" fill="none" xmlns="http://www.w3.org/2000/svg">
<path d="M19.4253 23.2972C18.8524 24.5673 18.467 25.9152 18.2817 27.2948H29.2017L23.7449 17.8433C21.8946 19.2731 20.4012 21.1438 19.4253 23.2972Z" fill="black"/>
<path d="M29.2027 27.2944H29.2017L29.2027 27.2954V27.2944Z" fill="black"/>
<path d="M18.2817 31.1035C18.467 32.4831 18.8524 33.8311 19.4253 35.1013C20.4011 37.2546 21.8944 39.1253 23.7448 40.5552L29.2017 31.1035H18.2817Z" fill="black"/>
<path d="M32.4998 33.0078L27.04 42.4644C28.7239 43.1601 30.5676 43.5449 32.4998 43.5449C34.432 43.5449 36.2756 43.1601 37.9595 42.4644L32.4998 33.0078Z" fill="black"/>
<path d="M35.7983 31.1035L41.2553 40.5552C43.1056 39.1253 44.5989 37.2548 45.5749 35.1013C46.1478 33.8311 46.5332 32.4831 46.7185 31.1035H35.7983Z" fill="black"/>
<path d="M45.5748 23.2977C44.5989 21.1442 43.1055 19.2736 41.2552 17.8438L35.7983 27.2953H46.7183C46.5331 25.9157 46.1477 24.5677 45.5748 23.2977Z" fill="black"/>
<path d="M29.7646 8.27979L32.4998 13.1332L35.235 8.27979H29.7646Z" fill="black"/>
<path d="M53.147 8.5522C47.6319 3.03723 40.2994 0 32.5 0C24.7006 0 17.3681 3.03723 11.853 8.5522C6.33801 14.0673 3.30078 21.3997 3.30078 29.1992C3.30078 36.9987 6.33801 44.3311 11.853 49.8462C17.3681 55.3612 24.7006 58.3984 32.5 58.3984C40.2994 58.3984 47.6319 55.3612 53.147 49.8462C58.662 44.3311 61.6992 36.9987 61.6992 29.1992C61.6992 21.3997 58.662 14.0673 53.147 8.5522ZM46.5041 12.5021C47.2478 11.7584 48.4534 11.7584 49.1971 12.5021C49.9408 13.2458 49.9408 14.4515 49.1971 15.1951C48.4534 15.9388 47.2478 15.9388 46.5041 15.1951C45.7604 14.4515 45.7604 13.2458 46.5041 12.5021ZM15.8029 12.5021C16.5466 11.7584 17.7522 11.7584 18.4959 12.5021C19.2396 13.2458 19.2396 14.4515 18.4959 15.1951C17.7522 15.9388 16.5466 15.9388 15.8029 15.1951C15.0592 14.4515 15.0592 13.2458 15.8029 12.5021ZM10.791 31.1035C9.73934 31.1035 8.88672 30.2509 8.88672 29.1992C8.88672 28.1475 9.73934 27.2949 10.791 27.2949C11.8427 27.2949 12.6953 28.1475 12.6953 29.1992C12.6953 30.2509 11.8427 31.1035 10.791 31.1035ZM18.4959 45.8963C17.7522 46.64 16.5466 46.64 15.8029 45.8963C15.0592 45.1527 15.0592 43.947 15.8029 43.2033C16.5466 42.4596 17.7522 42.4596 18.4959 43.2033C19.2396 43.947 19.2396 45.1527 18.4959 45.8963ZM32.5 52.8125C31.4483 52.8125 30.5957 51.9599 30.5957 50.9082C30.5957 49.8565 31.4483 49.0039 32.5 49.0039C33.5517 49.0039 34.4043 49.8565 34.4043 50.9082C34.4043 51.9599 33.5517 52.8125 32.5 52.8125ZM49.1971 45.8963C48.4534 46.64 47.2478 46.64 46.5041 45.8963C45.7604 45.1527 45.7604 43.947 46.5041 43.2033C47.2478 42.4596 48.4534 42.4596 49.1971 43.2033C49.9408 43.947 49.9408 45.1527 49.1971 45.8963ZM50.6453 29.7492C50.6439 29.7939 50.6419 29.8386 50.6402 29.8832C50.6346 30.0333 50.6273 30.183 50.618 30.3321C50.6158 30.3658 50.6139 30.3996 50.6115 30.4332C50.4768 32.4302 50.0179 34.3394 49.2868 36.1091C49.2793 36.1274 49.2719 36.1457 49.2643 36.164C49.1938 36.333 49.1217 36.5011 49.0463 36.6674C49.0204 36.7249 48.9927 36.7815 48.9662 36.8387C48.9247 36.928 48.883 37.0172 48.8401 37.1056C48.7892 37.211 48.7367 37.3156 48.6837 37.4199C48.6709 37.4452 48.658 37.4703 48.645 37.4955C48.5098 37.7587 48.3703 38.0198 48.2221 38.2765C46.6309 41.0325 44.3332 43.3304 41.5773 44.9215L41.5648 44.924C38.8956 46.4685 35.7993 47.3535 32.5 47.3535C29.2007 47.3535 26.1044 46.4684 23.4353 44.9239L23.4229 44.9213C20.667 43.3302 18.3691 41.0324 16.778 38.2764C16.6297 38.0195 16.4902 37.7585 16.3551 37.4953C16.3422 37.4702 16.3292 37.4451 16.3164 37.4198C16.2633 37.3155 16.2109 37.2108 16.16 37.1055C16.1171 37.017 16.0754 36.9279 16.0339 36.8386C16.0074 36.7814 15.9797 36.7247 15.9538 36.6672C15.8784 36.5009 15.8063 36.3328 15.7358 36.1639C15.7282 36.1456 15.7209 36.1273 15.7134 36.109C14.9822 34.3394 14.5233 32.4302 14.3886 30.4331C14.3863 30.3994 14.3843 30.3658 14.3821 30.332C14.3729 30.1829 14.3655 30.0333 14.3599 29.8831C14.3583 29.8384 14.3562 29.7937 14.3548 29.7491C14.3493 29.5664 14.3457 29.3833 14.3457 29.1992C14.3457 29.0151 14.3493 28.8321 14.3547 28.6493C14.3561 28.6046 14.3581 28.5599 14.3598 28.5152C14.3654 28.365 14.3727 28.2153 14.382 28.0662C14.3842 28.0325 14.3861 27.999 14.3884 27.9654C14.5231 25.9676 14.9822 24.0577 15.7137 22.2876C15.7209 22.2704 15.7278 22.253 15.7351 22.2356C15.8058 22.066 15.8782 21.8974 15.9538 21.7304C15.979 21.6748 16.0057 21.62 16.0314 21.5646C16.0738 21.4735 16.1163 21.3823 16.1601 21.2921C16.2108 21.1873 16.2629 21.0834 16.3156 20.9796C16.3288 20.9537 16.3422 20.9278 16.3555 20.9019C16.4904 20.6392 16.6298 20.3784 16.7779 20.1219C18.3691 17.3659 20.6668 15.0681 23.4227 13.477L23.431 13.4768C24.66 12.7651 25.9804 12.1955 27.3688 11.7856L23.2465 4.47065H41.7532L37.6309 11.7854C39.0178 12.1949 40.3368 12.7637 41.5646 13.4743L41.577 13.4768C44.3329 15.0679 46.6308 17.3658 48.2219 20.1218C48.3702 20.3786 48.5097 20.6397 48.6448 20.9028C48.6577 20.928 48.6707 20.9531 48.6835 20.9784C48.7365 21.0827 48.789 21.1873 48.8399 21.2927C48.8828 21.3812 48.9244 21.4703 48.9659 21.5596C48.9925 21.6168 49.0202 21.6734 49.0461 21.7309C49.1215 21.8973 49.1934 22.0652 49.2639 22.2342C49.2715 22.2526 49.2789 22.271 49.2865 22.2894C50.0175 24.059 50.4764 25.9681 50.6111 27.9651C50.6134 27.9988 50.6154 28.0324 50.6176 28.0662C50.6269 28.2153 50.6342 28.3649 50.6398 28.5151C50.6415 28.5598 50.6435 28.6044 50.6449 28.6491C50.6507 28.8321 50.6543 29.0151 50.6543 29.1992C50.6543 29.3833 50.6507 29.5664 50.6453 29.7492ZM54.209 31.1035C53.1573 31.1035 52.3047 30.2509 52.3047 29.1992C52.3047 28.1475 53.1573 27.2949 54.209 27.2949C55.2607 27.2949 56.1133 28.1475 56.1133 29.1992C56.1133 30.2509 55.2607 31.1035 54.209 31.1035Z" fill="black"/>
<path d="M50.4954 56.8804C45.1877 60.3462 38.9872 62.2072 32.4998 62.2072C26.0123 62.2072 19.8118 60.3462 14.5042 56.8804L10.3401 65.0002H54.6594L50.4954 56.8804Z" fill="black"/>
<path d="M35.6987 15.2144L32.4998 20.8908L29.3008 15.2144C28.5215 15.3927 27.7658 15.6344 27.04 15.9343L32.4998 25.3909L37.9595 15.9343C37.2337 15.6344 36.4781 15.3927 35.6987 15.2144Z" fill="black"/>
</svg>
